%TF.GenerationSoftware,HUMAN,DominicClifton,8.0.3*%
%TF.CreationDate,2025-04-28T16:25:44+02:00*%
%TF.SameCoordinates,Original*%
%TF.FileFunction,Copper,L4,Bot*%
%TF.FilePolarity,Positive*%
%FSLAX46Y46*%
G04 Gerber Fmt 4.6, Leading zero omitted, Abs format (unit mm)*
%MOMM*%
%LPD*%
G01*

G04 try these commands for image transforms *
G04 %MIB1*% *
G04 %IR180*% *
G04 %SFA1.5B3*% *
G04 %OFA60B60*% *
G04 %ASAYBX*% *

%AMRoundRect*
0 Rectangle with rounded corners*
0 $1 Rounding radius*
0 $2 $3 $4 $5 $6 $7 $8 $9 X,Y pos of 4 corners*
0 $10 Rotation (degrees)*
0 Add a 4 corners polygon primitive as box body*
4,1,4,$2,$3,$4,$5,$6,$7,$8,$9,$2,$3,$10*
0 Add four circle primitives for the rounded corners*
1,1,$1+$1,$2,$3,$10*
1,1,$1+$1,$4,$5,$10*
1,1,$1+$1,$6,$7,$10*
1,1,$1+$1,$8,$9,$10*
0 Add four vector-line primitives between the rounded corners*
20,1,$1+$1,$2,$3,$4,$5,$10*
20,1,$1+$1,$4,$5,$6,$7,$10*
20,1,$1+$1,$6,$7,$8,$9,$10*
20,1,$1+$1,$8,$9,$2,$3,$10*
%

%ADD34RoundRect,0.500000X-2.500000X-2.500000X2.500000X-2.500000X2.500000X2.500000X-2.500000X2.500000X0*%
%ADD35RoundRect,0.500000X-2.500000X-2.500000X2.500000X-2.500000X2.500000X2.500000X-2.500000X2.500000X45*%
%ADD36RoundRect,0.500000X-2.500000X-2.500000X2.500000X-2.500000X2.500000X2.500000X-2.500000X2.500000X90*%
%ADD37RoundRect,0.500000X-2.500000X-2.500000X2.500000X-2.500000X2.500000X2.500000X-2.500000X2.500000X135*%

D34*
X005000000Y005000000D03*
D35*
X-005000000Y005000000D03*
D36*
X-005000000Y-005000000D03*
D37*
X005000000Y-005000000D03*

G04 A small circle at the origin*
%ADD100C,0.10*%
D100*
X00000000Y00000000D03*
G04 Four rectangles, 2 along the vertical axis, 2 along the horizontal axis, the center point from each being +/-10mm from the origin.*
G04 the ones along the vertical axis are 4mm (wide) by 2mm (tall) and the ones on the horizontal axis are 2mm (wide) x 4mm (tall)*
%ADD101R,4.00X2.00*%
%ADD102R,2.00X4.00*%
D101*
X00000000Y10000000D03*
X00000000Y-10000000D03*
D102*
X10000000Y00000000D03*
X-10000000Y00000000D03*

%AMVectorPlus*
0 A plus, drown using two vector-lines*
0 $1 Line Width*
0 $2 Width/Height*
0 $3 $4 Center (x,y)*
0 $5 Rotation*
0 Add two vector-line primitives between the rounded corners*
20,1,$1,$3-$2,$4,$3+$2,$4,$5*
20,1,$1,$3,$4-$2,$3,$4+$2,$5*
%

%ADD30VectorPlus,0.500000X1.000000X0.000000X0.000000X0*%
%ADD31VectorPlus,0.500000X1.000000X0.000000X0.000000X45*%
%ADD32VectorPlus,0.500000X1.000000X0.000000X0.000000X90*%
%ADD33VectorPlus,0.500000X1.000000X0.000000X0.000000X135*%

D30*
X025000000Y020000000D03*
D31*
X-025000000Y020000000D03*
D32*
X025000000Y-020000000D03*
D33*
X-025000000Y-020000000D03*
M02*


%AMPolygon*
0 $1 Vertices (3 minimum)*
0 $2 Diameter*
0 $3 $4 Center (X/Y)*
0 $5 Rotation*
5,1,$1,$3,$4,$2,$5*%
%ADD38Polygon,3X0.500000X0.000000X0.000000X0*%
%ADD39Polygon,3X1.000000X0.000000X0.000000X90*%
%ADD40Polygon,3X1.000000X0.000000X0.000000X180*%
%ADD41Polygon,3X2.000000X0.000000X0.000000X270*%

D38*
X020000000Y020000000D03*
D39*
X-020000000Y020000000D03*
D40*
X-020000000Y-020000000D03*
D41*
X020000000Y-020000000D03*

%ADD42Polygon,4X2.000000X0.000000X0.000000X45*%
%ADD43Polygon,4X2.000000X0.000000X0.000000X135*%
%ADD44Polygon,4X2.000000X0.000000X0.000000X225*%
%ADD45Polygon,4X2.000000X0.000000X0.000000X315*%

D42*
X020000000Y000000000D03*
D43*
X000000000Y020000000D03*
D44*
X-020000000Y000000000D03*
D45*
X000000000Y-020000000D03*

%AMPOLYGON_LINE1*
0 $1 = diameter*
0 $2 = gap*
0 $3 = rotation*
$4=$1+$2*
5,1,3,0,0,$1,$3*
5,1,4,$4x1,0,$1,$3*
5,1,5,$4x2,0,$1,$3*
5,1,6,$4x3,0,$1,$3*
5,1,7,$4x4,0,$1,$3*
5,1,8,$4x5,0,$1,$3*
5,1,9,$4x6,0,$1,$3*
5,1,10,$4x7,0,$1,$3*
5,1,11,$4x8,0,$1,$3*
5,1,12,$4x9,0,$1,$3*
%

%ADD46POLYGON_LINE1,1.5X1.0*%
%ADD47POLYGON_LINE1,1.0X1.0X90*%
%ADD48POLYGON_LINE1,1.5X1.0X180*%
%ADD49POLYGON_LINE1,1.0X1.0X270*%

D46*
X-011250000Y017500000D03*
D47*
X-028750000Y-009000000D03*
D48*
X011250000Y-017500000D03*
D49*
X028750000Y009000000D03*


%AMSTAR5*
0 Parametric 5-point star outline using diameter*
0 $1 = outer diameter (from params)*
0 $2 = rotation degrees (from params)*
0 $3 = the outer radius*
0 $4 = the inner radius*
$3=$1x0.5*
$4=$3x0.4*
4,1,10,
$3x0.0000,$3x1.0000,
$4x-0.5878,$4x0.8090,
$3x-0.9511,$3x0.3090,
$4x-0.9511,$4x-0.3090,
$3x-0.5878,$3x-0.8090,
$4x0.0000,$4x-1.0000,
$3x0.5878,$3x-0.8090,
$4x0.9511,$4x-0.3090,
$3x0.9511,$3x0.3090,
$4x0.5878,$4x0.8090,
$3x0.0000,$3x1.0000,
$2*%

%ADD23STAR5,5.000000*%
%ADD24STAR5,5.000000X45*%
%ADD25STAR5,5.000000X90*%
%ADD26STAR5,5.000000X135*%

D23*
X025000000Y025000000D03*
D24*
X-025000000Y025000000D03*
D25*
X-025000000Y-025000000D03*
D26*
X025000000Y-025000000D03*

%ADD10C,2.5*%
%ADD11C,2.5X1.5*%
%ADD12C,1.5*%
D10*
X020000000Y025000000D03*
X-020000000Y025000000D03*
D11*
X020000000Y-025000000D03*
X-020000000Y-025000000D03*
D12*
X015000000Y-025000000D03*
X-015000000Y-025000000D03*
X015000000Y025000000D03*
X-015000000Y025000000D03*

%AMPLUS1*
0 $1 = length*
0 $2 = line width*
0 $3 = rotation*
21,1,$1,$2,0,0,$3*
21,1,$1,$2,0,0,$3+90*
%
%ADD51PLUS1,2.5X0.25*%
%ADD52PLUS1,2.5X0.25X45*%
%ADD53PLUS1,2.5X0.25X90*%
%ADD54PLUS1,2.5X0.25X135*%

%AMCROSS1*
0 $1 = length*
0 $2 = line width*
0 $3 = rotation*
21,1,$1,$2,0,0,$3+45*
0 Swap with and length, use opposite rotation*
21,1,$2,$1,0,0,$3+225*
%
%ADD55CROSS1,2.5X0.25X0*%
G04 Roting a CROSS by 45 degrees should render exactly the same as an unrotated PLUS of the same size*
%ADD56CROSS1,2.5X0.25X45*%
%ADD57CROSS1,2.5X0.25X90*%
%ADD58CROSS1,2.5X0.25X135*%

%AMPLUS2*
0 A plus made from 5 dots.*
0 This macro is useful for checking the drawing order of rotated circles.*
0 $1 = length*
0 $2 = line width*
1,1,$2,0,0,0*
1,1,$2,0,$1x0.5,$3*
1,1,$2,0,$1x0.5,$3+90*
1,1,$2,0,$1x0.5,$3+180*
1,1,$2,0,$1x0.5,$3+270*
%
%ADD59PLUS2,2.5X0.25*%
%ADD60PLUS2,2.5X0.25X45*%
%ADD61PLUS2,2.5X0.25X90*%
%ADD62PLUS2,2.5X0.25X135*%

%AMDIAMOND1OUTLINEMP*
0 $1 = outer diameter (scale)*
0 $2 = line width*
0 $3 = cos(rotation in degrees)*
0 $4 = sin(rotation in degrees)*
0 $5 = rotation in degrees*
0 gerber expressions do not support trigonometry functions like sin/cos, so they have to be pre-computed and supplied*
0 end-points*
1,1,$2,$1x0.000000,$1x-1.000000,$5*
1,1,$2,$1x0.750000,$1x0.000000,$5*
1,1,$2,$1x0.000000,$1x1.000000,$5*
1,1,$2,$1x-0.750000,$1x0.000000,$5*
0 mid-points*
1,1,$2x1.5,$1x0.375000,$1x-0.500000,$5*
1,1,$2x1.5,$1x0.375000,$1x0.500000,$5*
1,1,$2x1.5,$1x-0.375000,$1x0.500000,$5*
1,1,$2x1.5,$1x-0.375000,$1x-0.500000,$5*
0 center-lines*
21,1,$1x1.250000,$2,$1x(0.375000x$3--0.500000x$4),$1x(0.375000x$4+-0.500000x$3),53.130102+$5*
21,1,$1x1.250000,$2,$1x(0.375000x$3-0.500000x$4),$1x(0.375000x$4+0.500000x$3),126.869898+$5*
21,1,$1x1.250000,$2,$1x(-0.375000x$3-0.500000x$4),$1x(-0.375000x$4+0.500000x$3),233.130102+$5*
21,1,$1x1.250000,$2,$1x(-0.375000x$3--0.500000x$4),$1x(-0.375000x$4+-0.500000x$3),306.869898+$5*
%

G04 DIAMOND OUTLINE with 0 degree rotation (cos(0) = 1, sin(1) = 0)*
%ADD63DIAMOND1OUTLINEMP,1.25X0.25X1X0X0*%
G04 DIAMOND OUTLINE with 45 degree rotation (cos(45) = 0.707106, sin(45) = 0.707106)*
%ADD64DIAMOND1OUTLINEMP,1.25X0.25X0.707106X0.707106X45*%
G04 DIAMOND OUTLINE with 90 degree rotation (cos(90) = 0, sin(90) = 1)*
%ADD65DIAMOND1OUTLINEMP,1.25X0.25X0X1X90*%
G04 DIAMOND OUTLINE with 45 degree rotation (cos(135) = -0.707106, sin(135) = 0.707106)*
%ADD66DIAMOND1OUTLINEMP,1.25X0.25X-0.707106X0.707106X135*%

%AMSTAR4OUTLINEMP*
0 $1 = outer diameter (scale)*
0 $2 = line width*
0 $3 = cos(rotation in degrees)*
0 $4 = sin(rotation in degrees)*
0 $5 = rotation in degrees*
0 gerber expressions do not support trigonometry functions like sin/cos, so they have to be pre-computed and supplied*
0 end-points*
1,1,$2,$1x0.000000,$1x-1.000000,$5*
1,1,$2,$1x0.353553,$1x-0.353553,$5*
1,1,$2,$1x1.000000,$1x0.000000,$5*
1,1,$2,$1x0.353553,$1x0.353553,$5*
1,1,$2,$1x0.000000,$1x1.000000,$5*
1,1,$2,$1x-0.353553,$1x0.353553,$5*
1,1,$2,$1x-1.000000,$1x0.000000,$5*
1,1,$2,$1x-0.353553,$1x-0.353553,$5*
0 mid-points*
1,1,$2x1.5,$1x0.176777,$1x-0.676777,$5*
1,1,$2x1.5,$1x0.676777,$1x-0.176777,$5*
1,1,$2x1.5,$1x0.676777,$1x0.176777,$5*
1,1,$2x1.5,$1x0.176777,$1x0.676777,$5*
1,1,$2x1.5,$1x-0.176777,$1x0.676777,$5*
1,1,$2x1.5,$1x-0.676777,$1x0.176777,$5*
1,1,$2x1.5,$1x-0.676777,$1x-0.176777,$5*
1,1,$2x1.5,$1x-0.176777,$1x-0.676777,$5*
0 center-lines*
21,1,$1x0.736813,$2,$1x(0.176777x$3--0.676777x$4),$1x(0.176777x$4+-0.676777x$3),61.324950+$5*
21,1,$1x0.736813,$2,$1x(0.676777x$3--0.176777x$4),$1x(0.676777x$4+-0.176777x$3),28.675050+$5*
21,1,$1x0.736813,$2,$1x(0.676777x$3-0.176777x$4),$1x(0.676777x$4+0.176777x$3),151.324950+$5*
21,1,$1x0.736813,$2,$1x(0.176777x$3-0.676777x$4),$1x(0.176777x$4+0.676777x$3),118.675050+$5*
21,1,$1x0.736813,$2,$1x(-0.176777x$3-0.676777x$4),$1x(-0.176777x$4+0.676777x$3),241.324950+$5*
21,1,$1x0.736813,$2,$1x(-0.676777x$3-0.176777x$4),$1x(-0.676777x$4+0.176777x$3),208.675050+$5*
21,1,$1x0.736813,$2,$1x(-0.676777x$3--0.176777x$4),$1x(-0.676777x$4+-0.176777x$3),331.324950+$5*
21,1,$1x0.736813,$2,$1x(-0.176777x$3--0.676777x$4),$1x(-0.176777x$4+-0.676777x$3),298.675050+$5*
%

G04 STAR4 OUTLINE with 0 degree rotation (cos(0) = 1, sin(1) = 0)*
%ADD67STAR4OUTLINEMP,1.25X0.25X1X0X0*%
G04 STAR4 OUTLINE with 45 degree rotation (cos(45) = 0.707106, sin(45) = 0.707106)*
%ADD68STAR4OUTLINEMP,1.25X0.25X0.707106X0.707106X45*%
G04 STAR4 OUTLINE with 90 degree rotation (cos(90) = 0, sin(90) = 1)*
%ADD69STAR4OUTLINEMP,1.25X0.25X0X1X90*%
G04 STAR4 OUTLINE with 45 degree rotation (cos(135) = -0.707106, sin(135) = 0.707106)*
%ADD70STAR4OUTLINEMP,1.25X0.25X-0.707106X0.707106X135*%

%AMSTAR5OUTLINEMP*
0 $1 = outer diameter (scale)*
0 $2 = line width*
0 end-points*
1,1,$2,$1x0.000000,$1x-1.000000*
1,1,$2,$1x0.216305,$1x-0.297718*
1,1,$2,$1x0.951057,$1x-0.309017*
1,1,$2,$1x0.349989,$1x0.113718*
1,1,$2,$1x0.587785,$1x0.809017*
1,1,$2,$1x0.000000,$1x0.368000*
1,1,$2,$1x-0.587785,$1x0.809017*
1,1,$2,$1x-0.349989,$1x0.113718*
1,1,$2,$1x-0.951057,$1x-0.309017*
1,1,$2,$1x-0.216305,$1x-0.297718*
0 mid-points*
1,1,$2x1.5,$1x0.108152,$1x-0.648859*
1,1,$2x1.5,$1x0.583681,$1x-0.303368*
1,1,$2x1.5,$1x0.650523,$1x-0.097649*
1,1,$2x1.5,$1x0.468887,$1x0.461368*
1,1,$2x1.5,$1x0.293893,$1x0.588508*
1,1,$2x1.5,$1x-0.293893,$1x0.588508*
1,1,$2x1.5,$1x-0.468887,$1x0.461368*
1,1,$2x1.5,$1x-0.650523,$1x-0.097649*
1,1,$2x1.5,$1x-0.583681,$1x-0.303368*
1,1,$2x1.5,$1x-0.108152,$1x-0.648859*
0 center-lines*
21,1,$1x0.734838,$2,$1x0.108152,$1x-0.648859,72.881004*
21,1,$1x0.734838,$2,$1x0.583681,$1x-0.303368,359.118996*
21,1,$1x0.734838,$2,$1x0.650523,$1x-0.097649,144.881004*
21,1,$1x0.734838,$2,$1x0.468887,$1x0.461368,71.118996*
21,1,$1x0.734838,$2,$1x0.293893,$1x0.588508,216.881004*
21,1,$1x0.734838,$2,$1x-0.293893,$1x0.588508,143.118996*
21,1,$1x0.734838,$2,$1x-0.468887,$1x0.461368,288.881004*
21,1,$1x0.734838,$2,$1x-0.650523,$1x-0.097649,215.118996*
21,1,$1x0.734838,$2,$1x-0.583681,$1x-0.303368,0.881004*
21,1,$1x0.734838,$2,$1x-0.108152,$1x-0.648859,287.118996*
%

G04 STAR5 OUTLINE with 0 degree rotation (cos(0) = 1, sin(1) = 0)*
%ADD71STAR5OUTLINEMP,1.25X0.25X1X0X0*%
G04 STAR5 OUTLINE with 45 degree rotation (cos(45) = 0.707106, sin(45) = 0.707106)*
%ADD72STAR5OUTLINEMP,1.25X0.25X0.707106X0.707106X45*%
G04 STAR5 OUTLINE with 90 degree rotation (cos(90) = 0, sin(90) = 1)*
%ADD73STAR5OUTLINEMP,1.25X0.25X0X1X90*%
G04 STAR5 OUTLINE with 45 degree rotation (cos(135) = -0.707106, sin(135) = 0.707106)*
%ADD74STAR5OUTLINEMP,1.25X0.25X-0.707106X0.707106X135*%

%AMSTAR6OUTLINEMP*
0 $1 = outer diameter (scale)*
0 $2 = line width*
0 $3 = cos(rotation in degrees)*
0 $4 = sin(rotation in degrees)*
0 $5 = rotation in degrees*
0 gerber expressions do not support trigonometry functions like sin/cos, so they have to be pre-computed and supplied*
0 end-points*
1,1,$2,$1x0.000000,$1x-1.000000,$5*
1,1,$2,$1x0.184000,$1x-0.318697,$5*
1,1,$2,$1x0.866025,$1x-0.500000,$5*
1,1,$2,$1x0.368000,$1x0.000000,$5*
1,1,$2,$1x0.866025,$1x0.500000,$5*
1,1,$2,$1x0.184000,$1x0.318697,$5*
1,1,$2,$1x0.000000,$1x1.000000,$5*
1,1,$2,$1x-0.184000,$1x0.318697,$5*
1,1,$2,$1x-0.866025,$1x0.500000,$5*
1,1,$2,$1x-0.368000,$1x0.000000,$5*
1,1,$2,$1x-0.866025,$1x-0.500000,$5*
1,1,$2,$1x-0.184000,$1x-0.318697,$5*
0 mid-points*
1,1,$2x1.5,$1x0.092000,$1x-0.659349,$5*
1,1,$2x1.5,$1x0.525013,$1x-0.409349,$5*
1,1,$2x1.5,$1x0.617013,$1x-0.250000,$5*
1,1,$2x1.5,$1x0.617013,$1x0.250000,$5*
1,1,$2x1.5,$1x0.525013,$1x0.409349,$5*
1,1,$2x1.5,$1x0.092000,$1x0.659349,$5*
1,1,$2x1.5,$1x-0.092000,$1x0.659349,$5*
1,1,$2x1.5,$1x-0.525013,$1x0.409349,$5*
1,1,$2x1.5,$1x-0.617013,$1x0.250000,$5*
1,1,$2x1.5,$1x-0.617013,$1x-0.250000,$5*
1,1,$2x1.5,$1x-0.525013,$1x-0.409349,$5*
1,1,$2x1.5,$1x-0.092000,$1x-0.659349,$5*
0 center-lines*
21,1,$1x0.705712,$2,$1x(0.092000x$3--0.659349x$4),$1x(0.092000x$4+-0.659349x$3),74.886640+$5*
21,1,$1x0.705712,$2,$1x(0.525013x$3--0.409349x$4),$1x(0.525013x$4+-0.409349x$3),345.113360+$5*
21,1,$1x0.705712,$2,$1x(0.617013x$3--0.250000x$4),$1x(0.617013x$4+-0.250000x$3),134.886640+$5*
21,1,$1x0.705712,$2,$1x(0.617013x$3-0.250000x$4),$1x(0.617013x$4+0.250000x$3),45.113360+$5*
21,1,$1x0.705712,$2,$1x(0.525013x$3-0.409349x$4),$1x(0.525013x$4+0.409349x$3),194.886640+$5*
21,1,$1x0.705712,$2,$1x(0.092000x$3-0.659349x$4),$1x(0.092000x$4+0.659349x$3),105.113360+$5*
21,1,$1x0.705712,$2,$1x(-0.092000x$3-0.659349x$4),$1x(-0.092000x$4+0.659349x$3),254.886640+$5*
21,1,$1x0.705712,$2,$1x(-0.525013x$3-0.409349x$4),$1x(-0.525013x$4+0.409349x$3),165.113360+$5*
21,1,$1x0.705712,$2,$1x(-0.617013x$3-0.250000x$4),$1x(-0.617013x$4+0.250000x$3),314.886640+$5*
21,1,$1x0.705712,$2,$1x(-0.617013x$3--0.250000x$4),$1x(-0.617013x$4+-0.250000x$3),225.113360+$5*
21,1,$1x0.705712,$2,$1x(-0.525013x$3--0.409349x$4),$1x(-0.525013x$4+-0.409349x$3),14.886640+$5*
21,1,$1x0.705712,$2,$1x(-0.092000x$3--0.659349x$4),$1x(-0.092000x$4+-0.659349x$3),285.113360+$5*
%

G04 STAR6 OUTLINE with 0 degree rotation (cos(0) = 1, sin(1) = 0)*
%ADD75STAR6OUTLINEMP,1.25X0.25X1X0X0*%
G04 STAR6 OUTLINE with 45 degree rotation (cos(45) = 0.707106, sin(45) = 0.707106)*
%ADD76STAR6OUTLINEMP,1.25X0.25X0.707106X0.707106X45*%
G04 STAR6 OUTLINE with 90 degree rotation (cos(90) = 0, sin(90) = 1)*
%ADD77STAR6OUTLINEMP,1.25X0.25X0X1X90*%
G04 STAR6 OUTLINE with 45 degree rotation (cos(135) = -0.707106, sin(135) = 0.707106)*
%ADD78STAR6OUTLINEMP,1.25X0.25X-0.707106X0.707106X135*%

G04 PLUS*
D51*
X017500000Y017500000D03*
D52*
X-017500000Y017500000D03*
D53*
X-017500000Y-017500000D03*
D54*
X017500000Y-017500000D03*

G04 CROSS*
D55*
X017500000Y012500000D03*
D56*
X-017500000Y012500000D03*
D57*
X-017500000Y-012500000D03*
D58*
X017500000Y-012500000D03*

G04 CROSS (rotated), should look identical to a PLUS *
D59*
X017500000Y007500000D03*
D60*
X-017500000Y007500000D03*
D61*
X-017500000Y-007500000D03*
D62*
X017500000Y-007500000D03*


D63*
X015000000Y010000000D03*
D64*
X-015000000Y010000000D03*
D65*
X-015000000Y-010000000D03*
D66*
X015000000Y-010000000D03*

D67*
X015000000Y015000000D03*
D68*
X-015000000Y015000000D03*
D69*
X-015000000Y-015000000D03*
D70*
X015000000Y-015000000D03*

D71*
X020000000Y015000000D03*
D72*
X-020000000Y015000000D03*
D73*
X-020000000Y-015000000D03*
D74*
X020000000Y-015000000D03*

D75*
X020000000Y010000000D03*
D76*
X-020000000Y010000000D03*
D77*
X-020000000Y-010000000D03*
D78*
X020000000Y-010000000D03*

G04 Rectangle outline with rounded corners*
%ADD79C,0.1*%
D79*
G01*
G75*
X20000000Y-30000000D02*
X-20000000Y-30000000D01*
G02*
X-30000000Y-20000000I0J10000000D01*
G01*
X-30000000Y20000000D01*
G02*
X-20000000Y30000000I10000000J0D01*
G01*
X20000000Y30000000D01*
G02*
X30000000Y20000000I0J-10000000D01*
G01*
X30000000Y-20000000D01*
G02*
X20000000Y-30000000I-10000000J0D01*
G04 End of rounded rectangle outline*

G04 obround outlines*
%ADD80C,0.2*%
D80*

G01*
G75*
X-22500000Y05000000D02*
G03*
X-27500000Y05000000I-2500000J0D01*
G01*
X-27500000Y-05000000D01*
G03*
X-22500000Y-05000000I2500000J0D01*
G01*
X-22500000Y05000000D01*

X22500000Y05000000D02*
G02*
X27500000Y05000000I2500000J0D01*
G01*
X27500000Y-05000000D01*
G02*
X22500000Y-05000000I-2500000J0D01*
G01*
X22500000Y05000000D01*
G04 End of obround outlines*

G04 a circle made of a 360 degree arc.*
%ADD81C,0.25*%
D81*
G75*
X15000000Y0D02*
G03*
X15000000Y0I-15000000J0D01*


%AMSRPOLY1*
5,1,$1,$2,$3,$4,$5*
%

%ADD82C,1X0.5*%
%ADD83R,1X1X0.5*%
%ADD84O,1X1X0.5*%
%ADD85P,1X6X0X0.5*%
%ADD86SRPOLY1,3X0X0X1X90*%
%ADD87SRPOLY1,3X0X0X1X270*%
%ADD88C,0.5*%

G04 A Step repeat block with primitives, arcs, macros and regions*
%SRX2Y2I50.0J30.0*%

G01*

D82*
X-026000000Y-014000000D03*
D83*
X-026000000Y-016000000D03*
D84*
X-024000000Y-014000000D03*
D85*
X-024000000Y-016000000D03*

D86*
X-025000000Y-013250000D03*
D87*
X-025000000Y-016750000D03*

D88*
G75*
X-022000000Y-015000000D02*
G03*
X220000000Y-015000000I-003000000J0D01*

G36*
X-025500000Y-014500000D02*
G01
X-025500000Y-015500000D01*
X-024500000Y-015500000D01*
X-024500000Y-014500000D01*
X-025500000Y-014500000D01*
G37*

%SR*%


G04 Font Generated by Google Gemini 2.5 Pro based on examples and prompting by Dominic Clifton*
G04 Some characters could be improved, contributions welcome.*

G04 ============================================================================================*
G04 Vector Font: ASCII 32-126*
G04 Grid: 8 units wide by 16 units high.*
G04 Origin: (0,0) is at the CENTER of the character cell.*
G04   X-axis: [-4, 4], Y-axis: [-8, 8]*
G04 Macro Name Format: "VECTORFONT_<ASCII-DECIMAL-CODE>"*
G04 Macro Primitive: 20 (Line)*
G04 Macro Parameters:*
G04   $1 = Stroke width*
G04   $2 = Scale (e.g., 0.1 for a 0.8mm x 1.6mm character)*
G04   $3 = Rotation in degrees*
G04 ============================================================================================*

G04 --- Character Macros (ASCII 32 to 126) ---*

G04 --- ASCII 32 (Space) ---*
%AMVECTORFONT_32*
0 This macro is intentionally empty*
%

G04 --- ASCII 33 (!) ---*
%AMVECTORFONT_33*
0 Stem
20,1,$1,0x$2,-2x$2,0x$2,8x$2,$3*
0 Dot
20,1,$1,0x$2,-6x$2,0x$2,-5x$2,$3*
%
G04 --- ASCII 34 (") ---*
%AMVECTORFONT_34*
20,1,$1,-2x$2,4x$2,-2x$2,8x$2,$3*
20,1,$1,2x$2,4x$2,2x$2,8x$2,$3*
%
G04 --- ASCII 35 (#) ---*
%AMVECTORFONT_35*
0 Vertical bars
20,1,$1,-2x$2,-8x$2,-2x$2,8x$2,$3*
20,1,$1,2x$2,-8x$2,2x$2,8x$2,$3*
0 Horizontal bars
20,1,$1,-4x$2,-2x$2,4x$2,-2x$2,$3*
20,1,$1,-4x$2,4x$2,4x$2,4x$2,$3*
%
G04 --- ASCII 36 ($) ---*
%AMVECTORFONT_36*
0 Vertical bar
20,1,$1,0x$2,-8x$2,0x$2,8x$2,$3*
0 S-curve
20,1,$1,-3x$2,4x$2,3x$2,4x$2,$3*
20,1,$1,3x$2,4x$2,3x$2,1x$2,$3*
20,1,$1,3x$2,1x$2,-3x$2,-1x$2,$3*
20,1,$1,-3x$2,-1x$2,-3x$2,-4x$2,$3*
20,1,$1,-3x$2,-4x$2,3x$2,-4x$2,$3*
%
G04 --- ASCII 37 (%) ---*
%AMVECTORFONT_37*
0 Diagonal
20,1,$1,-4x$2,8x$2,4x$2,-8x$2,$3*
0 Top-left circle
20,1,$1,-2x$2,6x$2,-2x$2,4x$2,$3*
20,1,$1,-2x$2,4x$2,0x$2,4x$2,$3*
20,1,$1,0x$2,4x$2,0x$2,6x$2,$3*
20,1,$1,0x$2,6x$2,-2x$2,6x$2,$3*
0 Bottom-right circle
20,1,$1,2x$2,-4x$2,2x$2,-6x$2,$3*
20,1,$1,2x$2,-6x$2,4x$2,-6x$2,$3*
20,1,$1,4x$2,-6x$2,4x$2,-4x$2,$3*
20,1,$1,4x$2,-4x$2,2x$2,-4x$2,$3*
%
G04 --- ASCII 38 (&) ---*
%AMVECTORFONT_38*
20,1,$1,3x$2,-8x$2,3x$2,-3x$2,$3*
20,1,$1,3x$2,-3x$2,-2x$2,2x$2,$3*
20,1,$1,-2x$2,2x$2,-2x$2,5x$2,$3*
20,1,$1,-2x$2,5x$2,1x$2,8x$2,$3*
20,1,$1,1x$2,8x$2,3x$2,6x$2,$3*
20,1,$1,3x$2,6x$2,-3x$2,0x$2,$3*
20,1,$1,-3x$2,0x$2,-3x$2,-3x$2,$3*
20,1,$1,-3x$2,-3x$2,3x$2,-8x$2,$3*
%
G04 --- ASCII 39 (') ---*
%AMVECTORFONT_39*
20,1,$1,0x$2,4x$2,0x$2,8x$2,$3*
%
G04 --- ASCII 40 (() ---*
%AMVECTORFONT_40*
20,1,$1,2x$2,-8x$2,-2x$2,0x$2,$3*
20,1,$1,-2x$2,0x$2,2x$2,8x$2,$3*
%
G04 --- ASCII 41 ()) ---*
%AMVECTORFONT_41*
20,1,$1,-2x$2,-8x$2,2x$2,0x$2,$3*
20,1,$1,2x$2,0x$2,-2x$2,8x$2,$3*
%
G04 --- ASCII 42 (*) ---*
%AMVECTORFONT_42*
20,1,$1,0x$2,-4x$2,0x$2,4x$2,$3*
20,1,$1,-4x$2,0x$2,4x$2,0x$2,$3*
20,1,$1,-3x$2,-4x$2,3x$2,4x$2,$3*
20,1,$1,-3x$2,4x$2,3x$2,-4x$2,$3*
%
G04 --- ASCII 43 (+) ---*
%AMVECTORFONT_43*
20,1,$1,0x$2,-5x$2,0x$2,5x$2,$3*
20,1,$1,-4x$2,0x$2,4x$2,0x$2,$3*
%
G04 --- ASCII 44 (,) ---*
%AMVECTORFONT_44*
20,1,$1,1x$2,-4x$2,1x$2,-8x$2,$3*
20,1,$1,1x$2,-8x$2,-1x$2,-6x$2,$3*
%
G04 --- ASCII 45 (-) ---*
%AMVECTORFONT_45*
20,1,$1,-3x$2,0x$2,3x$2,0x$2,$3*
%
G04 --- ASCII 46 (.) ---*
%AMVECTORFONT_46*
20,1,$1,0x$2,-6x$2,0x$2,-5x$2,$3*
%
G04 --- ASCII 47 (/) ---*
%AMVECTORFONT_47*
20,1,$1,4x$2,-8x$2,-4x$2,8x$2,$3*
%
G04 --- ASCII 48 (0) ---*
%AMVECTORFONT_48*
20,1,$1,-3x$2,-8x$2,-3x$2,8x$2,$3*
20,1,$1,-3x$2,8x$2,3x$2,8x$2,$3*
20,1,$1,3x$2,8x$2,3x$2,-8x$2,$3*
20,1,$1,3x$2,-8x$2,-3x$2,-8x$2,$3*
20,1,$1,3x$2,-8x$2,-3x$2,8x$2,$3*
%
G04 --- ASCII 49 (1) ---*
%AMVECTORFONT_49*
20,1,$1,0x$2,-8x$2,0x$2,8x$2,$3*
20,1,$1,0x$2,8x$2,-2x$2,6x$2,$3*
%
G04 --- ASCII 50 (2) - REVISED ---*
%AMVECTORFONT_50*
20,1,$1,-3x$2,4x$2,0x$2,8x$2,$3*
20,1,$1,0x$2,8x$2,3x$2,4x$2,$3*
20,1,$1,3x$2,4x$2,-3x$2,-8x$2,$3*
20,1,$1,-3x$2,-8x$2,3x$2,-8x$2,$3*
%
G04 --- ASCII 51 (3) - REVISED ---*
%AMVECTORFONT_51*
20,1,$1,-3x$2,8x$2,3x$2,8x$2,$3*
20,1,$1,3x$2,8x$2,-1x$2,0x$2,$3*
20,1,$1,-1x$2,0x$2,3x$2,0x$2,$3*
20,1,$1,-1x$2,0x$2,3x$2,-8x$2,$3*
20,1,$1,3x$2,-8x$2,-3x$2,-8x$2,$3*
%
G04 --- ASCII 52 (4) ---*
%AMVECTORFONT_52*
20,1,$1,-3x$2,8x$2,-3x$2,0x$2,$3*
20,1,$1,-3x$2,0x$2,3x$2,0x$2,$3*
20,1,$1,3x$2,8x$2,3x$2,-8x$2,$3*
%
G04 --- ASCII 53 (5) ---*
%AMVECTORFONT_53*
20,1,$1,3x$2,8x$2,-3x$2,8x$2,$3*
20,1,$1,-3x$2,8x$2,-3x$2,0x$2,$3*
20,1,$1,-3x$2,0x$2,3x$2,0x$2,$3*
20,1,$1,3x$2,0x$2,3x$2,-8x$2,$3*
20,1,$1,3x$2,-8x$2,-3x$2,-8x$2,$3*
%
G04 --- ASCII 54 (6) ---*
%AMVECTORFONT_54*
20,1,$1,3x$2,8x$2,-3x$2,0x$2,$3*
20,1,$1,-3x$2,0x$2,-3x$2,-8x$2,$3*
20,1,$1,-3x$2,-8x$2,3x$2,-8x$2,$3*
20,1,$1,3x$2,-8x$2,3x$2,0x$2,$3*
20,1,$1,3x$2,0x$2,-3x$2,0x$2,$3*
%
G04 --- ASCII 55 (7) ---*
%AMVECTORFONT_55*
20,1,$1,-3x$2,8x$2,3x$2,8x$2,$3*
20,1,$1,3x$2,8x$2,-3x$2,-8x$2,$3*
%
G04 --- ASCII 56 (8) ---*
%AMVECTORFONT_56*
20,1,$1,-3x$2,-8x$2,-3x$2,8x$2,$3*
20,1,$1,-3x$2,8x$2,3x$2,8x$2,$3*
20,1,$1,3x$2,8x$2,3x$2,-8x$2,$3*
20,1,$1,3x$2,-8x$2,-3x$2,-8x$2,$3*
20,1,$1,-3x$2,0x$2,3x$2,0x$2,$3*
%
G04 --- ASCII 57 (9) ---*
%AMVECTORFONT_57*
20,1,$1,-3x$2,-8x$2,3x$2,0x$2,$3*
20,1,$1,3x$2,0x$2,3x$2,8x$2,$3*
20,1,$1,3x$2,8x$2,-3x$2,8x$2,$3*
20,1,$1,-3x$2,8x$2,-3x$2,0x$2,$3*
20,1,$1,-3x$2,0x$2,3x$2,0x$2,$3*
%
G04 --- ASCII 58 (:) ---*
%AMVECTORFONT_58*
20,1,$1,0x$2,4x$2,0x$2,3x$2,$3*
20,1,$1,0x$2,-6x$2,0x$2,-5x$2,$3*
%
G04 --- ASCII 59 (;) ---*
%AMVECTORFONT_59*
20,1,$1,0x$2,4x$2,0x$2,3x$2,$3*
20,1,$1,1x$2,-4x$2,1x$2,-8x$2,$3*
20,1,$1,1x$2,-8x$2,-1x$2,-6x$2,$3*
%
G04 --- ASCII 60 (<) ---*
%AMVECTORFONT_60*
20,1,$1,3x$2,-8x$2,-3x$2,0x$2,$3*
20,1,$1,-3x$2,0x$2,3x$2,8x$2,$3*
%
G04 --- ASCII 61 (=) ---*
%AMVECTORFONT_61*
20,1,$1,-3x$2,-2x$2,3x$2,-2x$2,$3*
20,1,$1,-3x$2,2x$2,3x$2,2x$2,$3*
%
G04 --- ASCII 62 (>) ---*
%AMVECTORFONT_62*
20,1,$1,-3x$2,-8x$2,3x$2,0x$2,$3*
20,1,$1,3x$2,0x$2,-3x$2,8x$2,$3*
%
G04 --- ASCII 63 (?) ---*
%AMVECTORFONT_63*
20,1,$1,-3x$2,4x$2,0x$2,8x$2,$3*
20,1,$1,0x$2,8x$2,3x$2,4x$2,$3*
20,1,$1,3x$2,4x$2,0x$2,0x$2,$3*
20,1,$1,0x$2,-6x$2,0x$2,-5x$2,$3*
%
G04 --- ASCII 64 (@) ---*
%AMVECTORFONT_64*
20,1,$1,0x$2,-4x$2,4x$2,0x$2,$3*
20,1,$1,4x$2,0x$2,0x$2,4x$2,$3*
20,1,$1,0x$2,4x$2,-4x$2,0x$2,$3*
20,1,$1,-4x$2,0x$2,0x$2,-4x$2,$3*
20,1,$1,0x$2,-8x$2,0x$2,8x$2,$3*
20,1,$1,0x$2,8x$2,4x$2,8x$2,$3*
20,1,$1,4x$2,8x$2,4x$2,4x$2,$3*
%
G04 --- ASCII 65 (A) ---*
%AMVECTORFONT_65*
20,1,$1,-4x$2,-8x$2,0x$2,8x$2,$3*
20,1,$1,0x$2,8x$2,4x$2,-8x$2,$3*
20,1,$1,-2x$2,0x$2,2x$2,0x$2,$3*
%
G04 --- ASCII 66 (B) ---*
%AMVECTORFONT_66*
20,1,$1,-3x$2,-8x$2,-3x$2,8x$2,$3*
20,1,$1,-3x$2,8x$2,2x$2,4x$2,$3*
20,1,$1,2x$2,4x$2,-3x$2,0x$2,$3*
20,1,$1,-3x$2,0x$2,3x$2,-4x$2,$3*
20,1,$1,3x$2,-4x$2,-3x$2,-8x$2,$3*
%
G04 --- ASCII 67 (C) ---*
%AMVECTORFONT_67*
20,1,$1,3x$2,4x$2,-2x$2,8x$2,$3*
20,1,$1,-2x$2,8x$2,-3x$2,0x$2,$3*
20,1,$1,-3x$2,0x$2,-2x$2,-8x$2,$3*
20,1,$1,-2x$2,-8x$2,3x$2,-4x$2,$3*
%
G04 --- ASCII 68 (D) ---*
%AMVECTORFONT_68*
20,1,$1,-3x$2,-8x$2,-3x$2,8x$2,$3*
20,1,$1,-3x$2,8x$2,2x$2,4x$2,$3*
20,1,$1,2x$2,4x$2,2x$2,-4x$2,$3*
20,1,$1,2x$2,-4x$2,-3x$2,-8x$2,$3*
%
G04 --- ASCII 69 (E) ---*
%AMVECTORFONT_69*
20,1,$1,-3x$2,-8x$2,-3x$2,8x$2,$3*
20,1,$1,-3x$2,8x$2,3x$2,8x$2,$3*
20,1,$1,-3x$2,0x$2,2x$2,0x$2,$3*
20,1,$1,-3x$2,-8x$2,3x$2,-8x$2,$3*
%
G04 --- ASCII 70 (F) ---*
%AMVECTORFONT_70*
20,1,$1,-3x$2,-8x$2,-3x$2,8x$2,$3*
20,1,$1,-3x$2,8x$2,3x$2,8x$2,$3*
20,1,$1,-3x$2,0x$2,2x$2,0x$2,$3*
%
G04 --- ASCII 71 (G) - REVISED ---*
%AMVECTORFONT_71*
20,1,$1,3x$2,4x$2,-2x$2,8x$2,$3*
20,1,$1,-2x$2,8x$2,-3x$2,0x$2,$3*
20,1,$1,-3x$2,0x$2,-2x$2,-8x$2,$3*
20,1,$1,-2x$2,-8x$2,3x$2,-4x$2,$3*
20,1,$1,3x$2,-4x$2,3x$2,0x$2,$3*
20,1,$1,3x$2,0x$2,0x$2,0x$2,$3*
%
G04 --- ASCII 72 (H) ---*
%AMVECTORFONT_72*
20,1,$1,-3x$2,-8x$2,-3x$2,8x$2,$3*
20,1,$1,3x$2,-8x$2,3x$2,8x$2,$3*
20,1,$1,-3x$2,0x$2,3x$2,0x$2,$3*
%
G04 --- ASCII 73 (I) ---*
%AMVECTORFONT_73*
20,1,$1,0x$2,-8x$2,0x$2,8x$2,$3*
20,1,$1,-2x$2,8x$2,2x$2,8x$2,$3*
20,1,$1,-2x$2,-8x$2,2x$2,-8x$2,$3*
%
G04 --- ASCII 74 (J) ---*
%AMVECTORFONT_74*
20,1,$1,3x$2,8x$2,3x$2,-4x$2,$3*
20,1,$1,3x$2,-4x$2,0x$2,-8x$2,$3*
20,1,$1,0x$2,-8x$2,-3x$2,-4x$2,$3*
%
G04 --- ASCII 75 (K) ---*
%AMVECTORFONT_75*
20,1,$1,-3x$2,-8x$2,-3x$2,8x$2,$3*
20,1,$1,3x$2,8x$2,-3x$2,0x$2,$3*
20,1,$1,-3x$2,0x$2,3x$2,-8x$2,$3*
%
G04 --- ASCII 76 (L) ---*
%AMVECTORFONT_76*
20,1,$1,-3x$2,8x$2,-3x$2,-8x$2,$3*
20,1,$1,-3x$2,-8x$2,3x$2,-8x$2,$3*
%
G04 --- ASCII 77 (M) ---*
%AMVECTORFONT_77*
20,1,$1,-4x$2,-8x$2,-4x$2,8x$2,$3*
20,1,$1,-4x$2,8x$2,0x$2,0x$2,$3*
20,1,$1,0x$2,0x$2,4x$2,8x$2,$3*
20,1,$1,4x$2,8x$2,4x$2,-8x$2,$3*
%
G04 --- ASCII 78 (N) ---*
%AMVECTORFONT_78*
20,1,$1,-3x$2,-8x$2,-3x$2,8x$2,$3*
20,1,$1,-3x$2,8x$2,3x$2,-8x$2,$3*
20,1,$1,3x$2,-8x$2,3x$2,8x$2,$3*
%
G04 --- ASCII 79 (O) ---*
%AMVECTORFONT_79*
20,1,$1,-3x$2,-8x$2,-3x$2,8x$2,$3*
20,1,$1,-3x$2,8x$2,3x$2,8x$2,$3*
20,1,$1,3x$2,8x$2,3x$2,-8x$2,$3*
20,1,$1,3x$2,-8x$2,-3x$2,-8x$2,$3*
%
G04 --- ASCII 80 (P) ---*
%AMVECTORFONT_80*
20,1,$1,-3x$2,-8x$2,-3x$2,8x$2,$3*
20,1,$1,-3x$2,8x$2,3x$2,8x$2,$3*
20,1,$1,3x$2,8x$2,3x$2,0x$2,$3*
20,1,$1,3x$2,0x$2,-3x$2,0x$2,$3*
%
G04 --- ASCII 81 (Q) ---*
%AMVECTORFONT_81*
20,1,$1,-3x$2,-8x$2,-3x$2,8x$2,$3*
20,1,$1,-3x$2,8x$2,3x$2,8x$2,$3*
20,1,$1,3x$2,8x$2,3x$2,-8x$2,$3*
20,1,$1,3x$2,-8x$2,-3x$2,-8x$2,$3*
20,1,$1,0x$2,-4x$2,4x$2,-8x$2,$3*
%
G04 --- ASCII 82 (R) ---*
%AMVECTORFONT_82*
20,1,$1,-3x$2,-8x$2,-3x$2,8x$2,$3*
20,1,$1,-3x$2,8x$2,3x$2,8x$2,$3*
20,1,$1,3x$2,8x$2,3x$2,0x$2,$3*
20,1,$1,3x$2,0x$2,-3x$2,0x$2,$3*
20,1,$1,-3x$2,0x$2,3x$2,-8x$2,$3*
%
G04 --- ASCII 83 (S) ---*
%AMVECTORFONT_83*
20,1,$1,-3x$2,-8x$2,3x$2,-8x$2,$3*
20,1,$1,3x$2,-8x$2,3x$2,0x$2,$3*
20,1,$1,3x$2,0x$2,-3x$2,0x$2,$3*
20,1,$1,-3x$2,0x$2,-3x$2,8x$2,$3*
20,1,$1,-3x$2,8x$2,3x$2,8x$2,$3*
%
G04 --- ASCII 84 (T) ---*
%AMVECTORFONT_84*
20,1,$1,0x$2,-8x$2,0x$2,8x$2,$3*
20,1,$1,-4x$2,8x$2,4x$2,8x$2,$3*
%
G04 --- ASCII 85 (U) ---*
%AMVECTORFONT_85*
20,1,$1,-3x$2,8x$2,-3x$2,-8x$2,$3*
20,1,$1,-3x$2,-8x$2,3x$2,-8x$2,$3*
20,1,$1,3x$2,-8x$2,3x$2,8x$2,$3*
%
G04 --- ASCII 86 (V) ---*
%AMVECTORFONT_86*
20,1,$1,-4x$2,8x$2,0x$2,-8x$2,$3*
20,1,$1,0x$2,-8x$2,4x$2,8x$2,$3*
%
G04 --- ASCII 87 (W) ---*
%AMVECTORFONT_87*
20,1,$1,-4x$2,8x$2,-2x$2,-8x$2,$3*
20,1,$1,-2x$2,-8x$2,0x$2,0x$2,$3*
20,1,$1,0x$2,0x$2,2x$2,-8x$2,$3*
20,1,$1,2x$2,-8x$2,4x$2,8x$2,$3*
%
G04 --- ASCII 88 (X) ---*
%AMVECTORFONT_88*
20,1,$1,-4x$2,-8x$2,4x$2,8x$2,$3*
20,1,$1,4x$2,-8x$2,-4x$2,8x$2,$3*
%
G04 --- ASCII 89 (Y) ---*
%AMVECTORFONT_89*
20,1,$1,-4x$2,8x$2,0x$2,0x$2,$3*
20,1,$1,4x$2,8x$2,0x$2,0x$2,$3*
20,1,$1,0x$2,0x$2,0x$2,-8x$2,$3*
%
G04 --- ASCII 90 (Z) ---*
%AMVECTORFONT_90*
20,1,$1,-4x$2,8x$2,4x$2,8x$2,$3*
20,1,$1,4x$2,8x$2,-4x$2,-8x$2,$3*
20,1,$1,-4x$2,-8x$2,4x$2,-8x$2,$3*
%
G04 --- ASCII 91 ([) ---*
%AMVECTORFONT_91*
20,1,$1,-2x$2,-8x$2,-2x$2,8x$2,$3*
20,1,$1,-2x$2,8x$2,0x$2,8x$2,$3*
20,1,$1,-2x$2,-8x$2,0x$2,-8x$2,$3*
%
G04 --- ASCII 92 (\) ---*
%AMVECTORFONT_92*
20,1,$1,-4x$2,-8x$2,4x$2,8x$2,$3*
%
G04 --- ASCII 93 (]) ---*
%AMVECTORFONT_93*
20,1,$1,2x$2,-8x$2,2x$2,8x$2,$3*
20,1,$1,2x$2,8x$2,0x$2,8x$2,$3*
20,1,$1,2x$2,-8x$2,0x$2,-8x$2,$3*
%
G04 --- ASCII 94 (^) ---*
%AMVECTORFONT_94*
20,1,$1,-3x$2,2x$2,0x$2,8x$2,$3*
20,1,$1,0x$2,8x$2,3x$2,2x$2,$3*
%
G04 --- ASCII 95 (_) ---*
%AMVECTORFONT_95*
20,1,$1,-4x$2,-8x$2,4x$2,-8x$2,$3*
%
G04 --- ASCII 96 (`) ---*
%AMVECTORFONT_96*
20,1,$1,-2x$2,8x$2,0x$2,6x$2,$3*
%
G04 --- ASCII 97 (a) ---*
%AMVECTORFONT_97*
20,1,$1,-3x$2,0x$2,2x$2,0x$2,$3*
20,1,$1,2x$2,0x$2,2x$2,-8x$2,$3*
20,1,$1,2x$2,-8x$2,-3x$2,-8x$2,$3*
20,1,$1,-3x$2,-8x$2,-3x$2,-4x$2,$3*
20,1,$1,-3x$2,-4x$2,2x$2,-4x$2,$3*
%
G04 --- ASCII 98 (b) ---*
%AMVECTORFONT_98*
20,1,$1,-3x$2,-8x$2,-3x$2,8x$2,$3*
20,1,$1,-3x$2,0x$2,2x$2,-4x$2,$3*
20,1,$1,2x$2,-4x$2,-3x$2,-8x$2,$3*
%
G04 --- ASCII 99 (c) ---*
%AMVECTORFONT_99*
20,1,$1,2x$2,0x$2,-3x$2,0x$2,$3*
20,1,$1,-3x$2,0x$2,-3x$2,-8x$2,$3*
20,1,$1,-3x$2,-8x$2,2x$2,-8x$2,$3*
%
G04 --- ASCII 100 (d) ---*
%AMVECTORFONT_100*
20,1,$1,3x$2,-8x$2,3x$2,8x$2,$3*
20,1,$1,3x$2,0x$2,-2x$2,-4x$2,$3*
20,1,$1,-2x$2,-4x$2,3x$2,-8x$2,$3*
%
G04 --- ASCII 101 (e) ---*
%AMVECTORFONT_101*
20,1,$1,-3x$2,-4x$2,3x$2,-4x$2,$3*
20,1,$1,3x$2,-4x$2,3x$2,0x$2,$3*
20,1,$1,3x$2,0x$2,-3x$2,0x$2,$3*
20,1,$1,-3x$2,0x$2,-3x$2,-8x$2,$3*
20,1,$1,-3x$2,-8x$2,3x$2,-8x$2,$3*
%
G04 --- ASCII 102 (f) ---*
%AMVECTORFONT_102*
20,1,$1,-1x$2,-8x$2,-1x$2,8x$2,$3*
20,1,$1,-1x$2,8x$2,3x$2,8x$2,$3*
20,1,$1,-3x$2,0x$2,1x$2,0x$2,$3*
%
G04 --- ASCII 103 (g) ---*
%AMVECTORFONT_103*
20,1,$1,-3x$2,4x$2,2x$2,4x$2,$3*
20,1,$1,2x$2,4x$2,2x$2,-12x$2,$3*
20,1,$1,2x$2,-12x$2,-3x$2,-12x$2,$3*
20,1,$1,-3x$2,-12x$2,-3x$2,0x$2,$3*
20,1,$1,-3x$2,0x$2,2x$2,0x$2,$3*
%
G04 --- ASCII 104 (h) ---*
%AMVECTORFONT_104*
20,1,$1,-3x$2,-8x$2,-3x$2,8x$2,$3*
20,1,$1,-3x$2,0x$2,2x$2,0x$2,$3*
20,1,$1,2x$2,0x$2,2x$2,-8x$2,$3*
%
G04 --- ASCII 105 (i) ---*
%AMVECTORFONT_105*
20,1,$1,0x$2,-8x$2,0x$2,0x$2,$3*
20,1,$1,0x$2,3x$2,0x$2,4x$2,$3*
%
G04 --- ASCII 106 (j) ---*
%AMVECTORFONT_106*
20,1,$1,1x$2,0x$2,1x$2,-12x$2,$3*
20,1,$1,1x$2,-12x$2,-2x$2,-10x$2,$3*
20,1,$1,1x$2,3x$2,1x$2,4x$2,$3*
%
G04 --- ASCII 107 (k) ---*
%AMVECTORFONT_107*
20,1,$1,-3x$2,-8x$2,-3x$2,8x$2,$3*
20,1,$1,3x$2,0x$2,-2x$2,-4x$2,$3*
20,1,$1,-2x$2,-4x$2,3x$2,-8x$2,$3*
%
G04 --- ASCII 108 (l) ---*
%AMVECTORFONT_108*
20,1,$1,0x$2,-8x$2,0x$2,8x$2,$3*
%
G04 --- ASCII 109 (m) ---*
%AMVECTORFONT_109*
20,1,$1,-3x$2,-8x$2,-3x$2,0x$2,$3*
20,1,$1,-3x$2,0x$2,-1x$2,0x$2,$3*
20,1,$1,-1x$2,0x$2,-1x$2,-8x$2,$3*
20,1,$1,-1x$2,0x$2,1x$2,0x$2,$3*
20,1,$1,1x$2,0x$2,1x$2,-8x$2,$3*
20,1,$1,1x$2,0x$2,3x$2,0x$2,$3*
20,1,$1,3x$2,0x$2,3x$2,-8x$2,$3*
%
G04 --- ASCII 110 (n) ---*
%AMVECTORFONT_110*
20,1,$1,-3x$2,-8x$2,-3x$2,0x$2,$3*
20,1,$1,-3x$2,0x$2,2x$2,0x$2,$3*
20,1,$1,2x$2,0x$2,2x$2,-8x$2,$3*
%
G04 --- ASCII 111 (o) ---*
%AMVECTORFONT_111*
20,1,$1,-3x$2,-8x$2,-3x$2,0x$2,$3*
20,1,$1,-3x$2,0x$2,2x$2,0x$2,$3*
20,1,$1,2x$2,0x$2,2x$2,-8x$2,$3*
20,1,$1,2x$2,-8x$2,-3x$2,-8x$2,$3*
%
G04 --- ASCII 112 (p) ---*
%AMVECTORFONT_112*
20,1,$1,-3x$2,0x$2,-3x$2,-12x$2,$3*
20,1,$1,-3x$2,0x$2,2x$2,-4x$2,$3*
20,1,$1,2x$2,-4x$2,-3x$2,-8x$2,$3*
%
G04 --- ASCII 113 (q) ---*
%AMVECTORFONT_113*
20,1,$1,3x$2,0x$2,3x$2,-12x$2,$3*
20,1,$1,3x$2,0x$2,-2x$2,-4x$2,$3*
20,1,$1,-2x$2,-4x$2,3x$2,-8x$2,$3*
%
G04 --- ASCII 114 (r) ---*
%AMVECTORFONT_114*
20,1,$1,-3x$2,-8x$2,-3x$2,0x$2,$3*
20,1,$1,-3x$2,0x$2,2x$2,0x$2,$3*
%
G04 --- ASCII 115 (s) ---*
%AMVECTORFONT_115*
20,1,$1,-3x$2,-8x$2,2x$2,-8x$2,$3*
20,1,$1,2x$2,-8x$2,2x$2,-4x$2,$3*
20,1,$1,2x$2,-4x$2,-3x$2,-4x$2,$3*
20,1,$1,-3x$2,-4x$2,-3x$2,0x$2,$3*
20,1,$1,-3x$2,0x$2,2x$2,0x$2,$3*
%
G04 --- ASCII 116 (t) ---*
%AMVECTORFONT_116*
20,1,$1,-1x$2,-8x$2,-1x$2,4x$2,$3*
20,1,$1,-3x$2,0x$2,1x$2,0x$2,$3*
%
G04 --- ASCII 117 (u) ---*
%AMVECTORFONT_117*
20,1,$1,-3x$2,0x$2,-3x$2,-8x$2,$3*
20,1,$1,-3x$2,-8x$2,2x$2,-8x$2,$3*
20,1,$1,2x$2,-8x$2,2x$2,0x$2,$3*
%
G04 --- ASCII 118 (v) ---*
%AMVECTORFONT_118*
20,1,$1,-3x$2,0x$2,-1x$2,-8x$2,$3*
20,1,$1,-1x$2,-8x$2,2x$2,0x$2,$3*
%
G04 --- ASCII 119 (w) ---*
%AMVECTORFONT_119*
20,1,$1,-3x$2,0x$2,-2x$2,-8x$2,$3*
20,1,$1,-2x$2,-8x$2,0x$2,-4x$2,$3*
20,1,$1,0x$2,-4x$2,2x$2,-8x$2,$3*
20,1,$1,2x$2,-8x$2,3x$2,0x$2,$3*
%
G04 --- ASCII 120 (x) ---*
%AMVECTORFONT_120*
20,1,$1,-3x$2,-8x$2,3x$2,0x$2,$3*
20,1,$1,3x$2,-8x$2,-3x$2,0x$2,$3*
%
G04 --- ASCII 121 (y) ---*
%AMVECTORFONT_121*
20,1,$1,-3x$2,0x$2,0x$2,-8x$2,$3*
20,1,$1,3x$2,0x$2,0x$2,-8x$2,$3*
20,1,$1,0x$2,-8x$2,0x$2,-12x$2,$3*
%
G04 --- ASCII 122 (z) ---*
%AMVECTORFONT_122*
20,1,$1,-3x$2,0x$2,3x$2,0x$2,$3*
20,1,$1,3x$2,0x$2,-3x$2,-8x$2,$3*
20,1,$1,-3x$2,-8x$2,3x$2,-8x$2,$3*
%
G04 --- ASCII 123 ({) ---*
%AMVECTORFONT_123*
20,1,$1,1x$2,8x$2,-1x$2,6x$2,$3*
20,1,$1,-1x$2,6x$2,-1x$2,-6x$2,$3*
20,1,$1,-1x$2,-6x$2,1x$2,-8x$2,$3*
%
G04 --- ASCII 124 (|) ---*
%AMVECTORFONT_124*
20,1,$1,0x$2,-8x$2,0x$2,8x$2,$3*
%
G04 --- ASCII 125 (}) ---*
%AMVECTORFONT_125*
20,1,$1,-1x$2,8x$2,1x$2,6x$2,$3*
20,1,$1,1x$2,6x$2,1x$2,-6x$2,$3*
20,1,$1,1x$2,-6x$2,-1x$2,-8x$2,$3*
%
G04 --- ASCII 126 (~) ---*
%AMVECTORFONT_126*
20,1,$1,-4x$2,-2x$2,-2x$2,2x$2,$3*
20,1,$1,-2x$2,2x$2,2x$2,-2x$2,$3*
20,1,$1,2x$2,-2x$2,4x$2,2x$2,$3*
%

G04 ============================================================================================*
G04 --- Aperture Definitions (D-codes)*
G04 D-code = 100 + ASCII code*
G04 Parameters: Stroke Width = 0.2, Scale = 0.1, Rotation = 0*
G04 This results in characters ~1.6mm tall with a 0.2mm line thickness.*
G04 ============================================================================================*
%ADD132VECTORFONT_32,0.2X0.45X0*%
%ADD133VECTORFONT_33,0.2X0.45X0*%
%ADD134VECTORFONT_34,0.2X0.45X0*%
%ADD135VECTORFONT_35,0.2X0.45X0*%
%ADD136VECTORFONT_36,0.2X0.45X0*%
%ADD137VECTORFONT_37,0.2X0.45X0*%
%ADD138VECTORFONT_38,0.2X0.45X0*%
%ADD139VECTORFONT_39,0.2X0.45X0*%
%ADD140VECTORFONT_40,0.2X0.45X0*%
%ADD141VECTORFONT_41,0.2X0.45X0*%
%ADD142VECTORFONT_42,0.2X0.45X0*%
%ADD143VECTORFONT_43,0.2X0.45X0*%
%ADD144VECTORFONT_44,0.2X0.45X0*%
%ADD145VECTORFONT_45,0.2X0.45X0*%
%ADD146VECTORFONT_46,0.2X0.45X0*%
%ADD147VECTORFONT_47,0.2X0.45X0*%
%ADD148VECTORFONT_48,0.2X0.45X0*%
%ADD149VECTORFONT_49,0.2X0.45X0*%
%ADD150VECTORFONT_50,0.2X0.45X0*%
%ADD151VECTORFONT_51,0.2X0.45X0*%
%ADD152VECTORFONT_52,0.2X0.45X0*%
%ADD153VECTORFONT_53,0.2X0.45X0*%
%ADD154VECTORFONT_54,0.2X0.45X0*%
%ADD155VECTORFONT_55,0.2X0.45X0*%
%ADD156VECTORFONT_56,0.2X0.45X0*%
%ADD157VECTORFONT_57,0.2X0.45X0*%
%ADD158VECTORFONT_58,0.2X0.45X0*%
%ADD159VECTORFONT_59,0.2X0.45X0*%
%ADD160VECTORFONT_60,0.2X0.45X0*%
%ADD161VECTORFONT_61,0.2X0.45X0*%
%ADD162VECTORFONT_62,0.2X0.45X0*%
%ADD163VECTORFONT_63,0.2X0.45X0*%
%ADD164VECTORFONT_64,0.2X0.45X0*%
%ADD165VECTORFONT_65,0.2X0.45X0*%
%ADD166VECTORFONT_66,0.2X0.45X0*%
%ADD167VECTORFONT_67,0.2X0.45X0*%
%ADD168VECTORFONT_68,0.2X0.45X0*%
%ADD169VECTORFONT_69,0.2X0.45X0*%
%ADD170VECTORFONT_70,0.2X0.45X0*%
%ADD171VECTORFONT_71,0.2X0.45X0*%
%ADD172VECTORFONT_72,0.2X0.45X0*%
%ADD173VECTORFONT_73,0.2X0.45X0*%
%ADD174VECTORFONT_74,0.2X0.45X0*%
%ADD175VECTORFONT_75,0.2X0.45X0*%
%ADD176VECTORFONT_76,0.2X0.45X0*%
%ADD177VECTORFONT_77,0.2X0.45X0*%
%ADD178VECTORFONT_78,0.2X0.45X0*%
%ADD179VECTORFONT_79,0.2X0.45X0*%
%ADD180VECTORFONT_80,0.2X0.45X0*%
%ADD181VECTORFONT_81,0.2X0.45X0*%
%ADD182VECTORFONT_82,0.2X0.45X0*%
%ADD183VECTORFONT_83,0.2X0.45X0*%
%ADD184VECTORFONT_84,0.2X0.45X0*%
%ADD185VECTORFONT_85,0.2X0.45X0*%
%ADD186VECTORFONT_86,0.2X0.45X0*%
%ADD187VECTORFONT_87,0.2X0.45X0*%
%ADD188VECTORFONT_88,0.2X0.45X0*%
%ADD189VECTORFONT_89,0.2X0.45X0*%
%ADD190VECTORFONT_90,0.2X0.45X0*%
%ADD191VECTORFONT_91,0.2X0.45X0*%
%ADD192VECTORFONT_92,0.2X0.45X0*%
%ADD193VECTORFONT_93,0.2X0.45X0*%
%ADD194VECTORFONT_94,0.2X0.45X0*%
%ADD195VECTORFONT_95,0.2X0.45X0*%
%ADD196VECTORFONT_96,0.2X0.45X0*%
%ADD197VECTORFONT_97,0.2X0.45X0*%
%ADD198VECTORFONT_98,0.2X0.45X0*%
%ADD199VECTORFONT_99,0.2X0.45X0*%
%ADD200VECTORFONT_100,0.2X0.45X0*%
%ADD201VECTORFONT_101,0.2X0.45X0*%
%ADD202VECTORFONT_102,0.2X0.45X0*%
%ADD203VECTORFONT_103,0.2X0.45X0*%
%ADD204VECTORFONT_104,0.2X0.45X0*%
%ADD205VECTORFONT_105,0.2X0.45X0*%
%ADD206VECTORFONT_106,0.2X0.45X0*%
%ADD207VECTORFONT_107,0.2X0.45X0*%
%ADD208VECTORFONT_108,0.2X0.45X0*%
%ADD209VECTORFONT_109,0.2X0.45X0*%
%ADD210VECTORFONT_110,0.2X0.45X0*%
%ADD211VECTORFONT_111,0.2X0.45X0*%
%ADD212VECTORFONT_112,0.2X0.45X0*%
%ADD213VECTORFONT_113,0.2X0.45X0*%
%ADD214VECTORFONT_114,0.2X0.45X0*%
%ADD215VECTORFONT_115,0.2X0.45X0*%
%ADD216VECTORFONT_116,0.2X0.45X0*%
%ADD217VECTORFONT_117,0.2X0.45X0*%
%ADD218VECTORFONT_118,0.2X0.45X0*%
%ADD219VECTORFONT_119,0.2X0.45X0*%
%ADD220VECTORFONT_120,0.2X0.45X0*%
%ADD221VECTORFONT_121,0.2X0.45X0*%
%ADD222VECTORFONT_122,0.2X0.45X0*%
%ADD223VECTORFONT_123,0.2X0.45X0*%
%ADD224VECTORFONT_124,0.2X0.45X0*%
%ADD225VECTORFONT_125,0.2X0.45X0*%
%ADD226VECTORFONT_126,0.2X0.45X0*%



G04 ============================================================================================*
G04 --- Drawing Commands ---*
G04 Write "Hello World! 123" centered at (0,0)*
G04 Character spacing is 10 units * scale = 10 * 0.1 = 1.0 mm*
G04 ============================================================================================*

G04 --- H (D172) ---*
D172*
X-10000000Y25000000D03*
G04 --- e (D201) ---*
D201*
X-5000000Y25000000D03*
G04 --- l (D208) ---*
D208*
X00000000Y25000000D03*
G04 --- l (D208) ---*
X5000000Y25000000D03*
G04 --- o (D211) ---*
D211*
X10000000Y25000000D03*

G04 --- W (D187) ---*
D187*
X-10000000Y-25000000D03*
G04 --- o (D211) ---*
D211*
X-5000000Y-25000000D03*
G04 --- r (D214) ---*
D214*
X00000000Y-25000000D03*
G04 --- l (D208) ---*
D208*
X5000000Y-25000000D03*
G04 --- d (D200) ---*
D200*
X10000000Y-25000000D03*


M02*
