%TF.GenerationSoftware,HUMAN,DominicClifton,8.0.3*%
%TF.CreationDate,2025-04-28T16:25:44+02:00*%
%TF.SameCoordinates,Original*%
%TF.FileFunction,Copper,L4,Bot*%
%TF.FilePolarity,Positive*%
%FSLAX46Y46*%
G04 Gerber Fmt 4.6, Leading zero omitted, Abs format (unit mm)*
%MOMM*%
%LPD*%
G01*

G04 Font Generated by Google Gemini 2.5 Pro based on examples and prompting by Dominic Clifton*
G04 Some characters could be improved, contributions welcome.*

G04 ============================================================================================*
G04 Vector Font: ASCII 32-126*
G04 Grid: 8 units wide by 16 units high.*
G04 Origin: (0,0) is at the CENTER of the character cell.*
G04   X-axis: [-4, 4], Y-axis: [-8, 8]*
G04 Macro Name Format: "VECTORFONT_<ASCII-DECIMAL-CODE>"*
G04 Macro Primitive: 20 (Line)*
G04 Macro Parameters:*
G04   $1 = Stroke width*
G04   $2 = Scale (e.g., 0.1 for a 0.8mm x 1.6mm character)*
G04   $3 = Rotation in degrees*
G04 ============================================================================================*

G04 --- Character Macros (ASCII 32 to 126) ---*

G04 --- ASCII 32 (Space) ---*
%AMVECTORFONT_32*
0 This macro is intentionally empty*
%

G04 --- ASCII 33 (!) ---*
%AMVECTORFONT_33*
0 Stem
20,1,$1,0x$2,-2x$2,0x$2,8x$2,$3*
0 Dot
20,1,$1,0x$2,-6x$2,0x$2,-5x$2,$3*
%
G04 --- ASCII 34 (") ---*
%AMVECTORFONT_34*
20,1,$1,-2x$2,4x$2,-2x$2,8x$2,$3*
20,1,$1,2x$2,4x$2,2x$2,8x$2,$3*
%
G04 --- ASCII 35 (#) ---*
%AMVECTORFONT_35*
0 Vertical bars
20,1,$1,-2x$2,-8x$2,-2x$2,8x$2,$3*
20,1,$1,2x$2,-8x$2,2x$2,8x$2,$3*
0 Horizontal bars
20,1,$1,-4x$2,-2x$2,4x$2,-2x$2,$3*
20,1,$1,-4x$2,4x$2,4x$2,4x$2,$3*
%
G04 --- ASCII 36 ($) ---*
%AMVECTORFONT_36*
0 Vertical bar
20,1,$1,0x$2,-8x$2,0x$2,8x$2,$3*
0 S-curve
20,1,$1,-3x$2,4x$2,3x$2,4x$2,$3*
20,1,$1,3x$2,4x$2,3x$2,1x$2,$3*
20,1,$1,3x$2,1x$2,-3x$2,-1x$2,$3*
20,1,$1,-3x$2,-1x$2,-3x$2,-4x$2,$3*
20,1,$1,-3x$2,-4x$2,3x$2,-4x$2,$3*
%
G04 --- ASCII 37 (%) ---*
%AMVECTORFONT_37*
0 Diagonal
20,1,$1,-4x$2,8x$2,4x$2,-8x$2,$3*
0 Top-left circle
20,1,$1,-2x$2,6x$2,-2x$2,4x$2,$3*
20,1,$1,-2x$2,4x$2,0x$2,4x$2,$3*
20,1,$1,0x$2,4x$2,0x$2,6x$2,$3*
20,1,$1,0x$2,6x$2,-2x$2,6x$2,$3*
0 Bottom-right circle
20,1,$1,2x$2,-4x$2,2x$2,-6x$2,$3*
20,1,$1,2x$2,-6x$2,4x$2,-6x$2,$3*
20,1,$1,4x$2,-6x$2,4x$2,-4x$2,$3*
20,1,$1,4x$2,-4x$2,2x$2,-4x$2,$3*
%
G04 --- ASCII 38 (&) ---*
%AMVECTORFONT_38*
20,1,$1,3x$2,-8x$2,3x$2,-3x$2,$3*
20,1,$1,3x$2,-3x$2,-2x$2,2x$2,$3*
20,1,$1,-2x$2,2x$2,-2x$2,5x$2,$3*
20,1,$1,-2x$2,5x$2,1x$2,8x$2,$3*
20,1,$1,1x$2,8x$2,3x$2,6x$2,$3*
20,1,$1,3x$2,6x$2,-3x$2,0x$2,$3*
20,1,$1,-3x$2,0x$2,-3x$2,-3x$2,$3*
20,1,$1,-3x$2,-3x$2,3x$2,-8x$2,$3*
%
G04 --- ASCII 39 (') ---*
%AMVECTORFONT_39*
20,1,$1,0x$2,4x$2,0x$2,8x$2,$3*
%
G04 --- ASCII 40 (() ---*
%AMVECTORFONT_40*
20,1,$1,2x$2,-8x$2,-2x$2,0x$2,$3*
20,1,$1,-2x$2,0x$2,2x$2,8x$2,$3*
%
G04 --- ASCII 41 ()) ---*
%AMVECTORFONT_41*
20,1,$1,-2x$2,-8x$2,2x$2,0x$2,$3*
20,1,$1,2x$2,0x$2,-2x$2,8x$2,$3*
%
G04 --- ASCII 42 (*) ---*
%AMVECTORFONT_42*
20,1,$1,0x$2,-4x$2,0x$2,4x$2,$3*
20,1,$1,-4x$2,0x$2,4x$2,0x$2,$3*
20,1,$1,-3x$2,-4x$2,3x$2,4x$2,$3*
20,1,$1,-3x$2,4x$2,3x$2,-4x$2,$3*
%
G04 --- ASCII 43 (+) ---*
%AMVECTORFONT_43*
20,1,$1,0x$2,-5x$2,0x$2,5x$2,$3*
20,1,$1,-4x$2,0x$2,4x$2,0x$2,$3*
%
G04 --- ASCII 44 (,) ---*
%AMVECTORFONT_44*
20,1,$1,1x$2,-4x$2,1x$2,-8x$2,$3*
20,1,$1,1x$2,-8x$2,-1x$2,-6x$2,$3*
%
G04 --- ASCII 45 (-) ---*
%AMVECTORFONT_45*
20,1,$1,-3x$2,0x$2,3x$2,0x$2,$3*
%
G04 --- ASCII 46 (.) ---*
%AMVECTORFONT_46*
20,1,$1,0x$2,-6x$2,0x$2,-5x$2,$3*
%
G04 --- ASCII 47 (/) ---*
%AMVECTORFONT_47*
20,1,$1,4x$2,-8x$2,-4x$2,8x$2,$3*
%
G04 --- ASCII 48 (0) ---*
%AMVECTORFONT_48*
20,1,$1,-3x$2,-8x$2,-3x$2,8x$2,$3*
20,1,$1,-3x$2,8x$2,3x$2,8x$2,$3*
20,1,$1,3x$2,8x$2,3x$2,-8x$2,$3*
20,1,$1,3x$2,-8x$2,-3x$2,-8x$2,$3*
20,1,$1,3x$2,-8x$2,-3x$2,8x$2,$3*
%
G04 --- ASCII 49 (1) ---*
%AMVECTORFONT_49*
20,1,$1,0x$2,-8x$2,0x$2,8x$2,$3*
20,1,$1,0x$2,8x$2,-2x$2,6x$2,$3*
%
G04 --- ASCII 50 (2) - REVISED ---*
%AMVECTORFONT_50*
20,1,$1,-3x$2,4x$2,0x$2,8x$2,$3*
20,1,$1,0x$2,8x$2,3x$2,4x$2,$3*
20,1,$1,3x$2,4x$2,-3x$2,-8x$2,$3*
20,1,$1,-3x$2,-8x$2,3x$2,-8x$2,$3*
%
G04 --- ASCII 51 (3) - REVISED ---*
%AMVECTORFONT_51*
20,1,$1,-3x$2,8x$2,3x$2,8x$2,$3*
20,1,$1,3x$2,8x$2,-1x$2,0x$2,$3*
20,1,$1,-1x$2,0x$2,3x$2,0x$2,$3*
20,1,$1,-1x$2,0x$2,3x$2,-8x$2,$3*
20,1,$1,3x$2,-8x$2,-3x$2,-8x$2,$3*
%
G04 --- ASCII 52 (4) ---*
%AMVECTORFONT_52*
20,1,$1,-3x$2,8x$2,-3x$2,0x$2,$3*
20,1,$1,-3x$2,0x$2,3x$2,0x$2,$3*
20,1,$1,3x$2,8x$2,3x$2,-8x$2,$3*
%
G04 --- ASCII 53 (5) ---*
%AMVECTORFONT_53*
20,1,$1,3x$2,8x$2,-3x$2,8x$2,$3*
20,1,$1,-3x$2,8x$2,-3x$2,0x$2,$3*
20,1,$1,-3x$2,0x$2,3x$2,0x$2,$3*
20,1,$1,3x$2,0x$2,3x$2,-8x$2,$3*
20,1,$1,3x$2,-8x$2,-3x$2,-8x$2,$3*
%
G04 --- ASCII 54 (6) ---*
%AMVECTORFONT_54*
20,1,$1,3x$2,8x$2,-3x$2,0x$2,$3*
20,1,$1,-3x$2,0x$2,-3x$2,-8x$2,$3*
20,1,$1,-3x$2,-8x$2,3x$2,-8x$2,$3*
20,1,$1,3x$2,-8x$2,3x$2,0x$2,$3*
20,1,$1,3x$2,0x$2,-3x$2,0x$2,$3*
%
G04 --- ASCII 55 (7) ---*
%AMVECTORFONT_55*
20,1,$1,-3x$2,8x$2,3x$2,8x$2,$3*
20,1,$1,3x$2,8x$2,-3x$2,-8x$2,$3*
%
G04 --- ASCII 56 (8) ---*
%AMVECTORFONT_56*
20,1,$1,-3x$2,-8x$2,-3x$2,8x$2,$3*
20,1,$1,-3x$2,8x$2,3x$2,8x$2,$3*
20,1,$1,3x$2,8x$2,3x$2,-8x$2,$3*
20,1,$1,3x$2,-8x$2,-3x$2,-8x$2,$3*
20,1,$1,-3x$2,0x$2,3x$2,0x$2,$3*
%
G04 --- ASCII 57 (9) ---*
%AMVECTORFONT_57*
20,1,$1,-3x$2,-8x$2,3x$2,0x$2,$3*
20,1,$1,3x$2,0x$2,3x$2,8x$2,$3*
20,1,$1,3x$2,8x$2,-3x$2,8x$2,$3*
20,1,$1,-3x$2,8x$2,-3x$2,0x$2,$3*
20,1,$1,-3x$2,0x$2,3x$2,0x$2,$3*
%
G04 --- ASCII 58 (:) ---*
%AMVECTORFONT_58*
20,1,$1,0x$2,4x$2,0x$2,3x$2,$3*
20,1,$1,0x$2,-6x$2,0x$2,-5x$2,$3*
%
G04 --- ASCII 59 (;) ---*
%AMVECTORFONT_59*
20,1,$1,0x$2,4x$2,0x$2,3x$2,$3*
20,1,$1,1x$2,-4x$2,1x$2,-8x$2,$3*
20,1,$1,1x$2,-8x$2,-1x$2,-6x$2,$3*
%
G04 --- ASCII 60 (<) ---*
%AMVECTORFONT_60*
20,1,$1,3x$2,-8x$2,-3x$2,0x$2,$3*
20,1,$1,-3x$2,0x$2,3x$2,8x$2,$3*
%
G04 --- ASCII 61 (=) ---*
%AMVECTORFONT_61*
20,1,$1,-3x$2,-2x$2,3x$2,-2x$2,$3*
20,1,$1,-3x$2,2x$2,3x$2,2x$2,$3*
%
G04 --- ASCII 62 (>) ---*
%AMVECTORFONT_62*
20,1,$1,-3x$2,-8x$2,3x$2,0x$2,$3*
20,1,$1,3x$2,0x$2,-3x$2,8x$2,$3*
%
G04 --- ASCII 63 (?) ---*
%AMVECTORFONT_63*
20,1,$1,-3x$2,4x$2,0x$2,8x$2,$3*
20,1,$1,0x$2,8x$2,3x$2,4x$2,$3*
20,1,$1,3x$2,4x$2,0x$2,0x$2,$3*
20,1,$1,0x$2,-6x$2,0x$2,-5x$2,$3*
%
G04 --- ASCII 64 (@) ---*
%AMVECTORFONT_64*
20,1,$1,0x$2,-4x$2,4x$2,0x$2,$3*
20,1,$1,4x$2,0x$2,0x$2,4x$2,$3*
20,1,$1,0x$2,4x$2,-4x$2,0x$2,$3*
20,1,$1,-4x$2,0x$2,0x$2,-4x$2,$3*
20,1,$1,0x$2,-8x$2,0x$2,8x$2,$3*
20,1,$1,0x$2,8x$2,4x$2,8x$2,$3*
20,1,$1,4x$2,8x$2,4x$2,4x$2,$3*
%
G04 --- ASCII 65 (A) ---*
%AMVECTORFONT_65*
20,1,$1,-4x$2,-8x$2,0x$2,8x$2,$3*
20,1,$1,0x$2,8x$2,4x$2,-8x$2,$3*
20,1,$1,-2x$2,0x$2,2x$2,0x$2,$3*
%
G04 --- ASCII 66 (B) ---*
%AMVECTORFONT_66*
20,1,$1,-3x$2,-8x$2,-3x$2,8x$2,$3*
20,1,$1,-3x$2,8x$2,2x$2,4x$2,$3*
20,1,$1,2x$2,4x$2,-3x$2,0x$2,$3*
20,1,$1,-3x$2,0x$2,3x$2,-4x$2,$3*
20,1,$1,3x$2,-4x$2,-3x$2,-8x$2,$3*
%
G04 --- ASCII 67 (C) ---*
%AMVECTORFONT_67*
20,1,$1,3x$2,4x$2,-2x$2,8x$2,$3*
20,1,$1,-2x$2,8x$2,-3x$2,0x$2,$3*
20,1,$1,-3x$2,0x$2,-2x$2,-8x$2,$3*
20,1,$1,-2x$2,-8x$2,3x$2,-4x$2,$3*
%
G04 --- ASCII 68 (D) ---*
%AMVECTORFONT_68*
20,1,$1,-3x$2,-8x$2,-3x$2,8x$2,$3*
20,1,$1,-3x$2,8x$2,2x$2,4x$2,$3*
20,1,$1,2x$2,4x$2,2x$2,-4x$2,$3*
20,1,$1,2x$2,-4x$2,-3x$2,-8x$2,$3*
%
G04 --- ASCII 69 (E) ---*
%AMVECTORFONT_69*
20,1,$1,-3x$2,-8x$2,-3x$2,8x$2,$3*
20,1,$1,-3x$2,8x$2,3x$2,8x$2,$3*
20,1,$1,-3x$2,0x$2,2x$2,0x$2,$3*
20,1,$1,-3x$2,-8x$2,3x$2,-8x$2,$3*
%
G04 --- ASCII 70 (F) ---*
%AMVECTORFONT_70*
20,1,$1,-3x$2,-8x$2,-3x$2,8x$2,$3*
20,1,$1,-3x$2,8x$2,3x$2,8x$2,$3*
20,1,$1,-3x$2,0x$2,2x$2,0x$2,$3*
%
G04 --- ASCII 71 (G) - REVISED ---*
%AMVECTORFONT_71*
20,1,$1,3x$2,4x$2,-2x$2,8x$2,$3*
20,1,$1,-2x$2,8x$2,-3x$2,0x$2,$3*
20,1,$1,-3x$2,0x$2,-2x$2,-8x$2,$3*
20,1,$1,-2x$2,-8x$2,3x$2,-4x$2,$3*
20,1,$1,3x$2,-4x$2,3x$2,0x$2,$3*
20,1,$1,3x$2,0x$2,0x$2,0x$2,$3*
%
G04 --- ASCII 72 (H) ---*
%AMVECTORFONT_72*
20,1,$1,-3x$2,-8x$2,-3x$2,8x$2,$3*
20,1,$1,3x$2,-8x$2,3x$2,8x$2,$3*
20,1,$1,-3x$2,0x$2,3x$2,0x$2,$3*
%
G04 --- ASCII 73 (I) ---*
%AMVECTORFONT_73*
20,1,$1,0x$2,-8x$2,0x$2,8x$2,$3*
20,1,$1,-2x$2,8x$2,2x$2,8x$2,$3*
20,1,$1,-2x$2,-8x$2,2x$2,-8x$2,$3*
%
G04 --- ASCII 74 (J) ---*
%AMVECTORFONT_74*
20,1,$1,3x$2,8x$2,3x$2,-4x$2,$3*
20,1,$1,3x$2,-4x$2,0x$2,-8x$2,$3*
20,1,$1,0x$2,-8x$2,-3x$2,-4x$2,$3*
%
G04 --- ASCII 75 (K) ---*
%AMVECTORFONT_75*
20,1,$1,-3x$2,-8x$2,-3x$2,8x$2,$3*
20,1,$1,3x$2,8x$2,-3x$2,0x$2,$3*
20,1,$1,-3x$2,0x$2,3x$2,-8x$2,$3*
%
G04 --- ASCII 76 (L) ---*
%AMVECTORFONT_76*
20,1,$1,-3x$2,8x$2,-3x$2,-8x$2,$3*
20,1,$1,-3x$2,-8x$2,3x$2,-8x$2,$3*
%
G04 --- ASCII 77 (M) ---*
%AMVECTORFONT_77*
20,1,$1,-4x$2,-8x$2,-4x$2,8x$2,$3*
20,1,$1,-4x$2,8x$2,0x$2,0x$2,$3*
20,1,$1,0x$2,0x$2,4x$2,8x$2,$3*
20,1,$1,4x$2,8x$2,4x$2,-8x$2,$3*
%
G04 --- ASCII 78 (N) ---*
%AMVECTORFONT_78*
20,1,$1,-3x$2,-8x$2,-3x$2,8x$2,$3*
20,1,$1,-3x$2,8x$2,3x$2,-8x$2,$3*
20,1,$1,3x$2,-8x$2,3x$2,8x$2,$3*
%
G04 --- ASCII 79 (O) ---*
%AMVECTORFONT_79*
20,1,$1,-3x$2,-8x$2,-3x$2,8x$2,$3*
20,1,$1,-3x$2,8x$2,3x$2,8x$2,$3*
20,1,$1,3x$2,8x$2,3x$2,-8x$2,$3*
20,1,$1,3x$2,-8x$2,-3x$2,-8x$2,$3*
%
G04 --- ASCII 80 (P) ---*
%AMVECTORFONT_80*
20,1,$1,-3x$2,-8x$2,-3x$2,8x$2,$3*
20,1,$1,-3x$2,8x$2,3x$2,8x$2,$3*
20,1,$1,3x$2,8x$2,3x$2,0x$2,$3*
20,1,$1,3x$2,0x$2,-3x$2,0x$2,$3*
%
G04 --- ASCII 81 (Q) ---*
%AMVECTORFONT_81*
20,1,$1,-3x$2,-8x$2,-3x$2,8x$2,$3*
20,1,$1,-3x$2,8x$2,3x$2,8x$2,$3*
20,1,$1,3x$2,8x$2,3x$2,-8x$2,$3*
20,1,$1,3x$2,-8x$2,-3x$2,-8x$2,$3*
20,1,$1,0x$2,-4x$2,4x$2,-8x$2,$3*
%
G04 --- ASCII 82 (R) ---*
%AMVECTORFONT_82*
20,1,$1,-3x$2,-8x$2,-3x$2,8x$2,$3*
20,1,$1,-3x$2,8x$2,3x$2,8x$2,$3*
20,1,$1,3x$2,8x$2,3x$2,0x$2,$3*
20,1,$1,3x$2,0x$2,-3x$2,0x$2,$3*
20,1,$1,-3x$2,0x$2,3x$2,-8x$2,$3*
%
G04 --- ASCII 83 (S) ---*
%AMVECTORFONT_83*
20,1,$1,-3x$2,-8x$2,3x$2,-8x$2,$3*
20,1,$1,3x$2,-8x$2,3x$2,0x$2,$3*
20,1,$1,3x$2,0x$2,-3x$2,0x$2,$3*
20,1,$1,-3x$2,0x$2,-3x$2,8x$2,$3*
20,1,$1,-3x$2,8x$2,3x$2,8x$2,$3*
%
G04 --- ASCII 84 (T) ---*
%AMVECTORFONT_84*
20,1,$1,0x$2,-8x$2,0x$2,8x$2,$3*
20,1,$1,-4x$2,8x$2,4x$2,8x$2,$3*
%
G04 --- ASCII 85 (U) ---*
%AMVECTORFONT_85*
20,1,$1,-3x$2,8x$2,-3x$2,-8x$2,$3*
20,1,$1,-3x$2,-8x$2,3x$2,-8x$2,$3*
20,1,$1,3x$2,-8x$2,3x$2,8x$2,$3*
%
G04 --- ASCII 86 (V) ---*
%AMVECTORFONT_86*
20,1,$1,-4x$2,8x$2,0x$2,-8x$2,$3*
20,1,$1,0x$2,-8x$2,4x$2,8x$2,$3*
%
G04 --- ASCII 87 (W) ---*
%AMVECTORFONT_87*
20,1,$1,-4x$2,8x$2,-2x$2,-8x$2,$3*
20,1,$1,-2x$2,-8x$2,0x$2,0x$2,$3*
20,1,$1,0x$2,0x$2,2x$2,-8x$2,$3*
20,1,$1,2x$2,-8x$2,4x$2,8x$2,$3*
%
G04 --- ASCII 88 (X) ---*
%AMVECTORFONT_88*
20,1,$1,-4x$2,-8x$2,4x$2,8x$2,$3*
20,1,$1,4x$2,-8x$2,-4x$2,8x$2,$3*
%
G04 --- ASCII 89 (Y) ---*
%AMVECTORFONT_89*
20,1,$1,-4x$2,8x$2,0x$2,0x$2,$3*
20,1,$1,4x$2,8x$2,0x$2,0x$2,$3*
20,1,$1,0x$2,0x$2,0x$2,-8x$2,$3*
%
G04 --- ASCII 90 (Z) ---*
%AMVECTORFONT_90*
20,1,$1,-4x$2,8x$2,4x$2,8x$2,$3*
20,1,$1,4x$2,8x$2,-4x$2,-8x$2,$3*
20,1,$1,-4x$2,-8x$2,4x$2,-8x$2,$3*
%
G04 --- ASCII 91 ([) ---*
%AMVECTORFONT_91*
20,1,$1,-2x$2,-8x$2,-2x$2,8x$2,$3*
20,1,$1,-2x$2,8x$2,0x$2,8x$2,$3*
20,1,$1,-2x$2,-8x$2,0x$2,-8x$2,$3*
%
G04 --- ASCII 92 (\) ---*
%AMVECTORFONT_92*
20,1,$1,-4x$2,-8x$2,4x$2,8x$2,$3*
%
G04 --- ASCII 93 (]) ---*
%AMVECTORFONT_93*
20,1,$1,2x$2,-8x$2,2x$2,8x$2,$3*
20,1,$1,2x$2,8x$2,0x$2,8x$2,$3*
20,1,$1,2x$2,-8x$2,0x$2,-8x$2,$3*
%
G04 --- ASCII 94 (^) ---*
%AMVECTORFONT_94*
20,1,$1,-3x$2,2x$2,0x$2,8x$2,$3*
20,1,$1,0x$2,8x$2,3x$2,2x$2,$3*
%
G04 --- ASCII 95 (_) ---*
%AMVECTORFONT_95*
20,1,$1,-4x$2,-8x$2,4x$2,-8x$2,$3*
%
G04 --- ASCII 96 (`) ---*
%AMVECTORFONT_96*
20,1,$1,-2x$2,8x$2,0x$2,6x$2,$3*
%
G04 --- ASCII 97 (a) ---*
%AMVECTORFONT_97*
20,1,$1,-3x$2,0x$2,2x$2,0x$2,$3*
20,1,$1,2x$2,0x$2,2x$2,-8x$2,$3*
20,1,$1,2x$2,-8x$2,-3x$2,-8x$2,$3*
20,1,$1,-3x$2,-8x$2,-3x$2,-4x$2,$3*
20,1,$1,-3x$2,-4x$2,2x$2,-4x$2,$3*
%
G04 --- ASCII 98 (b) ---*
%AMVECTORFONT_98*
20,1,$1,-3x$2,-8x$2,-3x$2,8x$2,$3*
20,1,$1,-3x$2,0x$2,2x$2,-4x$2,$3*
20,1,$1,2x$2,-4x$2,-3x$2,-8x$2,$3*
%
G04 --- ASCII 99 (c) ---*
%AMVECTORFONT_99*
20,1,$1,2x$2,0x$2,-3x$2,0x$2,$3*
20,1,$1,-3x$2,0x$2,-3x$2,-8x$2,$3*
20,1,$1,-3x$2,-8x$2,2x$2,-8x$2,$3*
%
G04 --- ASCII 100 (d) ---*
%AMVECTORFONT_100*
20,1,$1,3x$2,-8x$2,3x$2,8x$2,$3*
20,1,$1,3x$2,0x$2,-2x$2,-4x$2,$3*
20,1,$1,-2x$2,-4x$2,3x$2,-8x$2,$3*
%
G04 --- ASCII 101 (e) ---*
%AMVECTORFONT_101*
20,1,$1,-3x$2,-4x$2,3x$2,-4x$2,$3*
20,1,$1,3x$2,-4x$2,3x$2,0x$2,$3*
20,1,$1,3x$2,0x$2,-3x$2,0x$2,$3*
20,1,$1,-3x$2,0x$2,-3x$2,-8x$2,$3*
20,1,$1,-3x$2,-8x$2,3x$2,-8x$2,$3*
%
G04 --- ASCII 102 (f) ---*
%AMVECTORFONT_102*
20,1,$1,-1x$2,-8x$2,-1x$2,8x$2,$3*
20,1,$1,-1x$2,8x$2,3x$2,8x$2,$3*
20,1,$1,-3x$2,0x$2,1x$2,0x$2,$3*
%
G04 --- ASCII 103 (g) ---*
%AMVECTORFONT_103*
20,1,$1,-3x$2,4x$2,2x$2,4x$2,$3*
20,1,$1,2x$2,4x$2,2x$2,-12x$2,$3*
20,1,$1,2x$2,-12x$2,-3x$2,-12x$2,$3*
20,1,$1,-3x$2,-12x$2,-3x$2,0x$2,$3*
20,1,$1,-3x$2,0x$2,2x$2,0x$2,$3*
%
G04 --- ASCII 104 (h) ---*
%AMVECTORFONT_104*
20,1,$1,-3x$2,-8x$2,-3x$2,8x$2,$3*
20,1,$1,-3x$2,0x$2,2x$2,0x$2,$3*
20,1,$1,2x$2,0x$2,2x$2,-8x$2,$3*
%
G04 --- ASCII 105 (i) ---*
%AMVECTORFONT_105*
20,1,$1,0x$2,-8x$2,0x$2,0x$2,$3*
20,1,$1,0x$2,3x$2,0x$2,4x$2,$3*
%
G04 --- ASCII 106 (j) ---*
%AMVECTORFONT_106*
20,1,$1,1x$2,0x$2,1x$2,-12x$2,$3*
20,1,$1,1x$2,-12x$2,-2x$2,-10x$2,$3*
20,1,$1,1x$2,3x$2,1x$2,4x$2,$3*
%
G04 --- ASCII 107 (k) ---*
%AMVECTORFONT_107*
20,1,$1,-3x$2,-8x$2,-3x$2,8x$2,$3*
20,1,$1,3x$2,0x$2,-2x$2,-4x$2,$3*
20,1,$1,-2x$2,-4x$2,3x$2,-8x$2,$3*
%
G04 --- ASCII 108 (l) ---*
%AMVECTORFONT_108*
20,1,$1,0x$2,-8x$2,0x$2,8x$2,$3*
%
G04 --- ASCII 109 (m) ---*
%AMVECTORFONT_109*
20,1,$1,-3x$2,-8x$2,-3x$2,0x$2,$3*
20,1,$1,-3x$2,0x$2,-1x$2,0x$2,$3*
20,1,$1,-1x$2,0x$2,-1x$2,-8x$2,$3*
20,1,$1,-1x$2,0x$2,1x$2,0x$2,$3*
20,1,$1,1x$2,0x$2,1x$2,-8x$2,$3*
20,1,$1,1x$2,0x$2,3x$2,0x$2,$3*
20,1,$1,3x$2,0x$2,3x$2,-8x$2,$3*
%
G04 --- ASCII 110 (n) ---*
%AMVECTORFONT_110*
20,1,$1,-3x$2,-8x$2,-3x$2,0x$2,$3*
20,1,$1,-3x$2,0x$2,2x$2,0x$2,$3*
20,1,$1,2x$2,0x$2,2x$2,-8x$2,$3*
%
G04 --- ASCII 111 (o) ---*
%AMVECTORFONT_111*
20,1,$1,-3x$2,-8x$2,-3x$2,0x$2,$3*
20,1,$1,-3x$2,0x$2,2x$2,0x$2,$3*
20,1,$1,2x$2,0x$2,2x$2,-8x$2,$3*
20,1,$1,2x$2,-8x$2,-3x$2,-8x$2,$3*
%
G04 --- ASCII 112 (p) ---*
%AMVECTORFONT_112*
20,1,$1,-3x$2,0x$2,-3x$2,-12x$2,$3*
20,1,$1,-3x$2,0x$2,2x$2,-4x$2,$3*
20,1,$1,2x$2,-4x$2,-3x$2,-8x$2,$3*
%
G04 --- ASCII 113 (q) ---*
%AMVECTORFONT_113*
20,1,$1,3x$2,0x$2,3x$2,-12x$2,$3*
20,1,$1,3x$2,0x$2,-2x$2,-4x$2,$3*
20,1,$1,-2x$2,-4x$2,3x$2,-8x$2,$3*
%
G04 --- ASCII 114 (r) ---*
%AMVECTORFONT_114*
20,1,$1,-3x$2,-8x$2,-3x$2,0x$2,$3*
20,1,$1,-3x$2,0x$2,2x$2,0x$2,$3*
%
G04 --- ASCII 115 (s) ---*
%AMVECTORFONT_115*
20,1,$1,-3x$2,-8x$2,2x$2,-8x$2,$3*
20,1,$1,2x$2,-8x$2,2x$2,-4x$2,$3*
20,1,$1,2x$2,-4x$2,-3x$2,-4x$2,$3*
20,1,$1,-3x$2,-4x$2,-3x$2,0x$2,$3*
20,1,$1,-3x$2,0x$2,2x$2,0x$2,$3*
%
G04 --- ASCII 116 (t) ---*
%AMVECTORFONT_116*
20,1,$1,-1x$2,-8x$2,-1x$2,4x$2,$3*
20,1,$1,-3x$2,0x$2,1x$2,0x$2,$3*
%
G04 --- ASCII 117 (u) ---*
%AMVECTORFONT_117*
20,1,$1,-3x$2,0x$2,-3x$2,-8x$2,$3*
20,1,$1,-3x$2,-8x$2,2x$2,-8x$2,$3*
20,1,$1,2x$2,-8x$2,2x$2,0x$2,$3*
%
G04 --- ASCII 118 (v) ---*
%AMVECTORFONT_118*
20,1,$1,-3x$2,0x$2,-1x$2,-8x$2,$3*
20,1,$1,-1x$2,-8x$2,2x$2,0x$2,$3*
%
G04 --- ASCII 119 (w) ---*
%AMVECTORFONT_119*
20,1,$1,-3x$2,0x$2,-2x$2,-8x$2,$3*
20,1,$1,-2x$2,-8x$2,0x$2,-4x$2,$3*
20,1,$1,0x$2,-4x$2,2x$2,-8x$2,$3*
20,1,$1,2x$2,-8x$2,3x$2,0x$2,$3*
%
G04 --- ASCII 120 (x) ---*
%AMVECTORFONT_120*
20,1,$1,-3x$2,-8x$2,3x$2,0x$2,$3*
20,1,$1,3x$2,-8x$2,-3x$2,0x$2,$3*
%
G04 --- ASCII 121 (y) ---*
%AMVECTORFONT_121*
20,1,$1,-3x$2,0x$2,0x$2,-8x$2,$3*
20,1,$1,3x$2,0x$2,0x$2,-8x$2,$3*
20,1,$1,0x$2,-8x$2,0x$2,-12x$2,$3*
%
G04 --- ASCII 122 (z) ---*
%AMVECTORFONT_122*
20,1,$1,-3x$2,0x$2,3x$2,0x$2,$3*
20,1,$1,3x$2,0x$2,-3x$2,-8x$2,$3*
20,1,$1,-3x$2,-8x$2,3x$2,-8x$2,$3*
%
G04 --- ASCII 123 ({) ---*
%AMVECTORFONT_123*
20,1,$1,1x$2,8x$2,-1x$2,6x$2,$3*
20,1,$1,-1x$2,6x$2,-1x$2,-6x$2,$3*
20,1,$1,-1x$2,-6x$2,1x$2,-8x$2,$3*
%
G04 --- ASCII 124 (|) ---*
%AMVECTORFONT_124*
20,1,$1,0x$2,-8x$2,0x$2,8x$2,$3*
%
G04 --- ASCII 125 (}) ---*
%AMVECTORFONT_125*
20,1,$1,-1x$2,8x$2,1x$2,6x$2,$3*
20,1,$1,1x$2,6x$2,1x$2,-6x$2,$3*
20,1,$1,1x$2,-6x$2,-1x$2,-8x$2,$3*
%
G04 --- ASCII 126 (~) ---*
%AMVECTORFONT_126*
20,1,$1,-4x$2,-2x$2,-2x$2,2x$2,$3*
20,1,$1,-2x$2,2x$2,2x$2,-2x$2,$3*
20,1,$1,2x$2,-2x$2,4x$2,2x$2,$3*
%

G04 ============================================================================================*
G04 --- Aperture Definitions (D-codes)*
G04 D-code = 100 + ASCII code*
G04 Parameters: Stroke Width = 0.2, Scale = 0.1, Rotation = 0*
G04 This results in characters ~1.6mm tall with a 0.2mm line thickness.*
G04 ============================================================================================*
%ADD132VECTORFONT_32,0.2X0.45X0*%
%ADD133VECTORFONT_33,0.2X0.45X0*%
%ADD134VECTORFONT_34,0.2X0.45X0*%
%ADD135VECTORFONT_35,0.2X0.45X0*%
%ADD136VECTORFONT_36,0.2X0.45X0*%
%ADD137VECTORFONT_37,0.2X0.45X0*%
%ADD138VECTORFONT_38,0.2X0.45X0*%
%ADD139VECTORFONT_39,0.2X0.45X0*%
%ADD140VECTORFONT_40,0.2X0.45X0*%
%ADD141VECTORFONT_41,0.2X0.45X0*%
%ADD142VECTORFONT_42,0.2X0.45X0*%
%ADD143VECTORFONT_43,0.2X0.45X0*%
%ADD144VECTORFONT_44,0.2X0.45X0*%
%ADD145VECTORFONT_45,0.2X0.45X0*%
%ADD146VECTORFONT_46,0.2X0.45X0*%
%ADD147VECTORFONT_47,0.2X0.45X0*%
%ADD148VECTORFONT_48,0.2X0.45X0*%
%ADD149VECTORFONT_49,0.2X0.45X0*%
%ADD150VECTORFONT_50,0.2X0.45X0*%
%ADD151VECTORFONT_51,0.2X0.45X0*%
%ADD152VECTORFONT_52,0.2X0.45X0*%
%ADD153VECTORFONT_53,0.2X0.45X0*%
%ADD154VECTORFONT_54,0.2X0.45X0*%
%ADD155VECTORFONT_55,0.2X0.45X0*%
%ADD156VECTORFONT_56,0.2X0.45X0*%
%ADD157VECTORFONT_57,0.2X0.45X0*%
%ADD158VECTORFONT_58,0.2X0.45X0*%
%ADD159VECTORFONT_59,0.2X0.45X0*%
%ADD160VECTORFONT_60,0.2X0.45X0*%
%ADD161VECTORFONT_61,0.2X0.45X0*%
%ADD162VECTORFONT_62,0.2X0.45X0*%
%ADD163VECTORFONT_63,0.2X0.45X0*%
%ADD164VECTORFONT_64,0.2X0.45X0*%
%ADD165VECTORFONT_65,0.2X0.45X0*%
%ADD166VECTORFONT_66,0.2X0.45X0*%
%ADD167VECTORFONT_67,0.2X0.45X0*%
%ADD168VECTORFONT_68,0.2X0.45X0*%
%ADD169VECTORFONT_69,0.2X0.45X0*%
%ADD170VECTORFONT_70,0.2X0.45X0*%
%ADD171VECTORFONT_71,0.2X0.45X0*%
%ADD172VECTORFONT_72,0.2X0.45X0*%
%ADD173VECTORFONT_73,0.2X0.45X0*%
%ADD174VECTORFONT_74,0.2X0.45X0*%
%ADD175VECTORFONT_75,0.2X0.45X0*%
%ADD176VECTORFONT_76,0.2X0.45X0*%
%ADD177VECTORFONT_77,0.2X0.45X0*%
%ADD178VECTORFONT_78,0.2X0.45X0*%
%ADD179VECTORFONT_79,0.2X0.45X0*%
%ADD180VECTORFONT_80,0.2X0.45X0*%
%ADD181VECTORFONT_81,0.2X0.45X0*%
%ADD182VECTORFONT_82,0.2X0.45X0*%
%ADD183VECTORFONT_83,0.2X0.45X0*%
%ADD184VECTORFONT_84,0.2X0.45X0*%
%ADD185VECTORFONT_85,0.2X0.45X0*%
%ADD186VECTORFONT_86,0.2X0.45X0*%
%ADD187VECTORFONT_87,0.2X0.45X0*%
%ADD188VECTORFONT_88,0.2X0.45X0*%
%ADD189VECTORFONT_89,0.2X0.45X0*%
%ADD190VECTORFONT_90,0.2X0.45X0*%
%ADD191VECTORFONT_91,0.2X0.45X0*%
%ADD192VECTORFONT_92,0.2X0.45X0*%
%ADD193VECTORFONT_93,0.2X0.45X0*%
%ADD194VECTORFONT_94,0.2X0.45X0*%
%ADD195VECTORFONT_95,0.2X0.45X0*%
%ADD196VECTORFONT_96,0.2X0.45X0*%
%ADD197VECTORFONT_97,0.2X0.45X0*%
%ADD198VECTORFONT_98,0.2X0.45X0*%
%ADD199VECTORFONT_99,0.2X0.45X0*%
%ADD200VECTORFONT_100,0.2X0.45X0*%
%ADD201VECTORFONT_101,0.2X0.45X0*%
%ADD202VECTORFONT_102,0.2X0.45X0*%
%ADD203VECTORFONT_103,0.2X0.45X0*%
%ADD204VECTORFONT_104,0.2X0.45X0*%
%ADD205VECTORFONT_105,0.2X0.45X0*%
%ADD206VECTORFONT_106,0.2X0.45X0*%
%ADD207VECTORFONT_107,0.2X0.45X0*%
%ADD208VECTORFONT_108,0.2X0.45X0*%
%ADD209VECTORFONT_109,0.2X0.45X0*%
%ADD210VECTORFONT_110,0.2X0.45X0*%
%ADD211VECTORFONT_111,0.2X0.45X0*%
%ADD212VECTORFONT_112,0.2X0.45X0*%
%ADD213VECTORFONT_113,0.2X0.45X0*%
%ADD214VECTORFONT_114,0.2X0.45X0*%
%ADD215VECTORFONT_115,0.2X0.45X0*%
%ADD216VECTORFONT_116,0.2X0.45X0*%
%ADD217VECTORFONT_117,0.2X0.45X0*%
%ADD218VECTORFONT_118,0.2X0.45X0*%
%ADD219VECTORFONT_119,0.2X0.45X0*%
%ADD220VECTORFONT_120,0.2X0.45X0*%
%ADD221VECTORFONT_121,0.2X0.45X0*%
%ADD222VECTORFONT_122,0.2X0.45X0*%
%ADD223VECTORFONT_123,0.2X0.45X0*%
%ADD224VECTORFONT_124,0.2X0.45X0*%
%ADD225VECTORFONT_125,0.2X0.45X0*%
%ADD226VECTORFONT_126,0.2X0.45X0*%

%AMCHARACTERBOX1*
0 $1 line-width
0 $2 scale
0 $3 rotation
0 $4 width
0 $5 height
0 $6 baseline
0 $7 natural height
0 $8 half width
0 $9 half height
$8=$4/2
$9=$5/2
0 natural height
20,1,$1,(0-$8)x$2,(0-$9+$6+$7)x$2,$8x$2,(0-$9+$6+$7)x$2,$3*
0 baseline
20,1,$1,(0-$8)x$2,(0-$9+$6)x$2,$8x$2,(0-$9+$6)x$2,$3*
0 bounding box
20,1,$1,(0-$8)x$2,0-$9x$2,$8x$2,(0-$9)x$2,$3*
20,1,$1,$8x$2,(0-$9)x$2,$8x$2,$9x$2,$3*
20,1,$1,$8x$2,$9x$2,(0-$8)x$2,$9x$2,$3*
20,1,$1,(0-$8)x$2,$9x$2,(0-$8)x$2,(0-$9)x$2,$3*
%

%ADD99CHARACTERBOX1,0.1X0.45X0X12X20X2X16*%

G04 Draw a grid of characters and bounding boxes.*

D130*
X000000000Y000000000D03*
D99*
D03*
D131*
X010000000Y000000000D03*
D99*
D03*
D132*
X020000000Y000000000D03*
D99*
D03*
D133*
X030000000Y000000000D03*
D99*
D03*
D134*
X040000000Y000000000D03*
D99*
D03*
D135*
X050000000Y000000000D03*
D99*
D03*
D136*
X060000000Y000000000D03*
D99*
D03*
D137*
X070000000Y000000000D03*
D99*
D03*
D138*
X080000000Y000000000D03*
D99*
D03*
D130*
X090000000Y000000000D03*
D99*
D03*

D140*
X000000000Y-010000000D03*
D99*
D03*
D141*
X010000000Y-010000000D03*
D99*
D03*
D142*
X020000000Y-010000000D03*
D99*
D03*
D143*
X030000000Y-010000000D03*
D99*
D03*
D144*
X040000000Y-010000000D03*
D99*
D03*
D145*
X050000000Y-010000000D03*
D99*
D03*
D146*
X060000000Y-010000000D03*
D99*
D03*
D147*
X070000000Y-010000000D03*
D99*
D03*
D148*
X080000000Y-010000000D03*
D99*
D03*
D149*
X090000000Y-010000000D03*
D99*
D03*

D150*
X000000000Y-020000000D03*
D99*
D03*
D151*
X010000000Y-020000000D03*
D99*
D03*
D152*
X020000000Y-020000000D03*
D99*
D03*
D153*
X030000000Y-020000000D03*
D99*
D03*
D154*
X040000000Y-020000000D03*
D99*
D03*
D155*
X050000000Y-020000000D03*
D99*
D03*
D156*
X060000000Y-020000000D03*
D99*
D03*
D157*
X070000000Y-020000000D03*
D99*
D03*
D158*
X080000000Y-020000000D03*
D99*
D03*
D159*
X090000000Y-020000000D03*
D99*
D03*


D160*
X000000000Y-030000000D03*
D99*
D03*
D161*
X010000000Y-030000000D03*
D99*
D03*
D162*
X020000000Y-030000000D03*
D99*
D03*
D163*
X030000000Y-030000000D03*
D99*
D03*
D164*
X040000000Y-030000000D03*
D99*
D03*
D165*
X050000000Y-030000000D03*
D99*
D03*
D166*
X060000000Y-030000000D03*
D99*
D03*
D167*
X070000000Y-030000000D03*
D99*
D03*
D168*
X080000000Y-030000000D03*
D99*
D03*
D169*
X090000000Y-030000000D03*
D99*
D03*


D170*
X000000000Y-040000000D03*
D99*
D03*
D171*
X010000000Y-040000000D03*
D99*
D03*
D172*
X020000000Y-040000000D03*
D99*
D03*
D173*
X030000000Y-040000000D03*
D99*
D03*
D174*
X040000000Y-040000000D03*
D99*
D03*
D175*
X050000000Y-040000000D03*
D99*
D03*
D176*
X060000000Y-040000000D03*
D99*
D03*
D177*
X070000000Y-040000000D03*
D99*
D03*
D178*
X080000000Y-040000000D03*
D99*
D03*
D179*
X090000000Y-040000000D03*
D99*
D03*


D180*
X000000000Y-050000000D03*
D99*
D03*
D181*
X010000000Y-050000000D03*
D99*
D03*
D182*
X020000000Y-050000000D03*
D99*
D03*
D183*
X030000000Y-050000000D03*
D99*
D03*
D184*
X040000000Y-050000000D03*
D99*
D03*
D185*
X050000000Y-050000000D03*
D99*
D03*
D186*
X060000000Y-050000000D03*
D99*
D03*
D187*
X070000000Y-050000000D03*
D99*
D03*
D188*
X080000000Y-050000000D03*
D99*
D03*
D189*
X090000000Y-050000000D03*
D99*
D03*


D190*
X000000000Y-060000000D03*
D99*
D03*
D191*
X010000000Y-060000000D03*
D99*
D03*
D192*
X020000000Y-060000000D03*
D99*
D03*
D193*
X030000000Y-060000000D03*
D99*
D03*
D194*
X040000000Y-060000000D03*
D99*
D03*
D195*
X050000000Y-060000000D03*
D99*
D03*
D196*
X060000000Y-060000000D03*
D99*
D03*
D197*
X070000000Y-060000000D03*
D99*
D03*
D198*
X080000000Y-060000000D03*
D99*
D03*
D199*
X090000000Y-060000000D03*
D99*
D03*

D200*
X000000000Y-070000000D03*
D99*
D03*
D201*
X010000000Y-070000000D03*
D99*
D03*
D202*
X020000000Y-070000000D03*
D99*
D03*
D203*
X030000000Y-070000000D03*
D99*
D03*
D204*
X040000000Y-070000000D03*
D99*
D03*
D205*
X050000000Y-070000000D03*
D99*
D03*
D206*
X060000000Y-070000000D03*
D99*
D03*
D207*
X070000000Y-070000000D03*
D99*
D03*
D208*
X080000000Y-070000000D03*
D99*
D03*
D209*
X090000000Y-070000000D03*
D99*
D03*

D210*
X000000000Y-080000000D03*
D99*
D03*
D211*
X010000000Y-080000000D03*
D99*
D03*
D212*
X020000000Y-080000000D03*
D99*
D03*
D213*
X030000000Y-080000000D03*
D99*
D03*
D214*
X040000000Y-080000000D03*
D99*
D03*
D215*
X050000000Y-080000000D03*
D99*
D03*
D216*
X060000000Y-080000000D03*
D99*
D03*
D217*
X070000000Y-080000000D03*
D99*
D03*
D218*
X080000000Y-080000000D03*
D99*
D03*
D219*
X090000000Y-080000000D03*
D99*
D03*

D220*
X000000000Y-090000000D03*
D99*
D03*
D221*
X010000000Y-090000000D03*
D99*
D03*
D222*
X020000000Y-090000000D03*
D99*
D03*
D223*
X030000000Y-090000000D03*
D99*
D03*
D224*
X040000000Y-090000000D03*
D99*
D03*
D225*
X050000000Y-090000000D03*
D99*
D03*
D226*
X060000000Y-090000000D03*
D99*
D03*
D227*
X070000000Y-090000000D03*
D99*
D03*
D228*
X080000000Y-090000000D03*
D99*
D03*
D229*
X090000000Y-090000000D03*
D99*
D03*


M02*