M48
; DRILL file KiCad 10.0.1 date 2026-05-30T16:37:25
; FORMAT={-:-/ absolute / metric / decimal}
; #@! TF.CreationDate,2026-05-30T16:37:25+03:00
; #@! TF.GenerationSoftware,Kicad,Pcbnew,10.0.1
; #@! TF.FileFunction,NonPlated,1,2,NPTH
FMAT,2
METRIC
; #@! TA.AperFunction,NonPlated,NPTH,ComponentDrill
T1C1.700
; #@! TA.AperFunction,NonPlated,NPTH,ComponentDrill
T2C3.050
; #@! TA.AperFunction,NonPlated,NPTH,ComponentDrill
T3C4.000
%
G90
G05
T1
X4.42Y-31.5
X4.42Y-50.5
X4.42Y-69.5
X4.42Y-88.5
X14.58Y-31.5
X14.58Y-50.5
X14.58Y-69.5
X14.58Y-88.5
X23.42Y-31.5
X23.42Y-50.5
X23.42Y-69.5
X23.42Y-88.5
X33.58Y-31.5
X33.58Y-50.5
X33.58Y-69.5
X33.58Y-88.5
X42.42Y-31.5
X42.42Y-50.5
X42.42Y-69.5
X42.42Y-88.5
X52.58Y-31.5
X52.58Y-50.5
X52.58Y-69.5
X52.58Y-88.5
X61.42Y-31.5
X61.42Y-50.5
X61.42Y-69.5
X61.42Y-88.5
X71.58Y-31.5
X71.58Y-50.5
X71.58Y-69.5
X71.58Y-88.5
X80.42Y-31.5
X80.42Y-50.5
X80.42Y-69.5
X80.42Y-88.5
X90.58Y-31.5
X90.58Y-50.5
X90.58Y-69.5
X90.58Y-88.5
X99.42Y-31.5
X99.42Y-50.5
X99.42Y-69.5
X99.42Y-88.5
X109.58Y-31.5
X109.58Y-50.5
X109.58Y-69.5
X118.42Y-31.5
X118.42Y-50.5
X118.42Y-69.5
X128.58Y-31.5
X128.58Y-50.5
X128.58Y-69.5
X128.58Y-88.5
X137.42Y-31.5
X137.42Y-50.5
X137.42Y-69.5
X137.42Y-88.5
X147.58Y-31.5
X147.58Y-50.5
X147.58Y-69.5
X147.58Y-88.5
X156.42Y-31.5
X156.42Y-50.5
X156.42Y-69.5
X156.42Y-88.5
X166.58Y-31.5
X166.58Y-50.5
X166.58Y-69.5
X166.58Y-88.5
X175.42Y-31.5
X175.42Y-50.5
X175.42Y-69.5
X175.42Y-88.5
X185.58Y-31.5
X185.58Y-50.5
X185.58Y-69.5
X185.58Y-88.5
X194.42Y-31.5
X194.42Y-50.5
X194.42Y-69.5
X194.42Y-88.5
X204.58Y-31.5
X204.58Y-50.5
X204.58Y-69.5
X204.58Y-88.5
X213.42Y-31.5
X213.42Y-50.5
X213.42Y-69.5
X213.42Y-88.5
X223.58Y-31.5
X223.58Y-50.5
X223.58Y-69.5
X223.58Y-88.5
T2
X102.1Y-95.5
X125.9Y-95.5
T3
X9.5Y-31.5
X9.5Y-50.5
X9.5Y-69.5
X9.5Y-88.5
X28.5Y-31.5
X28.5Y-50.5
X28.5Y-69.5
X28.5Y-88.5
X47.5Y-31.5
X47.5Y-50.5
X47.5Y-69.5
X47.5Y-88.5
X66.5Y-31.5
X66.5Y-50.5
X66.5Y-69.5
X66.5Y-88.5
X85.5Y-31.5
X85.5Y-50.5
X85.5Y-69.5
X85.5Y-88.5
X102.1Y-80.26
X104.5Y-31.5
X104.5Y-50.5
X104.5Y-69.5
X104.5Y-88.5
X114.0Y-88.5
X123.5Y-31.5
X123.5Y-50.5
X123.5Y-69.5
X123.5Y-88.5
X125.9Y-80.26
X142.5Y-31.5
X142.5Y-50.5
X142.5Y-69.5
X142.5Y-88.5
X161.5Y-31.5
X161.5Y-50.5
X161.5Y-69.5
X161.5Y-88.5
X180.5Y-31.5
X180.5Y-50.5
X180.5Y-69.5
X180.5Y-88.5
X199.5Y-31.5
X199.5Y-50.5
X199.5Y-69.5
X199.5Y-88.5
X218.5Y-31.5
X218.5Y-50.5
X218.5Y-69.5
X218.5Y-88.5
T1
G00X108.92Y-88.5
M15
G01X109.58Y-88.5
M16
G05
G00X118.42Y-88.5
M15
G01X119.08Y-88.5
M16
G05
M30
