M48
; DRILL file KiCad 10.0.1 date 2026-05-30T16:37:25
; FORMAT={-:-/ absolute / metric / decimal}
; #@! TF.CreationDate,2026-05-30T16:37:25+03:00
; #@! TF.GenerationSoftware,Kicad,Pcbnew,10.0.1
; #@! TF.FileFunction,Plated,1,2,PTH
FMAT,2
METRIC
; #@! TA.AperFunction,Plated,PTH,ViaDrill
T1C0.600
; #@! TA.AperFunction,Plated,PTH,ComponentDrill
T2C0.600
; #@! TA.AperFunction,Plated,PTH,ComponentDrill
T3C0.700
; #@! TA.AperFunction,Plated,PTH,ViaDrill
T4C0.800
; #@! TA.AperFunction,Plated,PTH,ComponentDrill
T5C0.800
; #@! TA.AperFunction,Plated,PTH,ComponentDrill
T6C0.900
; #@! TA.AperFunction,Plated,PTH,ComponentDrill
T7C1.000
; #@! TA.AperFunction,Plated,PTH,ComponentDrill
T8C1.100
; #@! TA.AperFunction,Plated,PTH,ComponentDrill
T9C1.500
; #@! TA.AperFunction,Plated,PTH,ComponentDrill
T10C2.200
%
G90
G05
T1
X2.0Y-10.0
X2.0Y-22.0
X2.0Y-41.0
X2.0Y-60.0
X2.0Y-79.0
X2.0Y-96.0
X13.97Y-7.874
X19.0Y-96.0
X26.416Y-38.735
X29.21Y-18.923
X38.0Y-96.0
X41.021Y-22.86
X43.434Y-38.862
X49.53Y-18.288
X56.007Y-22.098
X57.0Y-96.0
X57.277Y-36.957
X59.69Y-25.4
X64.516Y-26.289
X69.85Y-21.209
X72.771Y-42.164
X76.0Y-96.0
X77.089Y-36.83
X79.629Y-22.225
X82.423Y-41.529
X90.297Y-28.702
X90.424Y-36.957
X90.424Y-40.005
X95.0Y-96.0
X95.25Y-63.373
X98.806Y-25.781
X103.886Y-83.947
X108.966Y-39.116
X109.347Y-28.575
X109.347Y-41.783
X109.5Y-47.5
X114.0Y-53.0
X114.0Y-96.0
X120.65Y-20.955
X120.65Y-44.958
X124.714Y-22.098
X126.492Y-8.89
X128.524Y-41.529
X128.524Y-43.434
X129.286Y-17.907
X132.461Y-45.085
X133.0Y-96.0
X133.096Y-23.876
X133.35Y-33.528
X137.16Y-11.176
X138.049Y-33.528
X138.303Y-44.196
X143.256Y-22.479
X143.51Y-41.402
X147.574Y-38.989
X147.75Y-28.0
X152.0Y-96.0
X154.813Y-34.29
X155.829Y-1.651
X155.829Y-5.08
X158.115Y-1.651
X160.655Y-15.621
X161.925Y-1.651
X165.735Y-1.651
X169.672Y-1.651
X170.5Y-33.5
X170.561Y-53.594
X171.0Y-28.0
X171.0Y-96.0
X171.323Y-49.657
X172.339Y-13.843
X173.355Y-1.651
X175.133Y-41.148
X177.927Y-13.335
X183.515Y-7.62
X184.785Y-13.335
X185.674Y-45.212
X187.325Y-20.574
X187.5Y-23.0
X189.738Y-34.925
X189.865Y-20.574
X190.0Y-96.0
X191.135Y-12.954
X193.9Y-21.9
X195.199Y-16.51
X198.755Y-3.683
X204.978Y-2.286
X209.0Y-96.0
X211.074Y-47.498
X226.0Y-10.0
X226.0Y-22.0
X226.0Y-41.0
X226.0Y-60.0
X226.0Y-79.0
X226.0Y-96.0
T2
X196.215Y-12.7
X196.215Y-14.2
T3
X7.62Y-8.89
X7.62Y-13.97
X10.16Y-10.16
X10.16Y-15.24
X12.7Y-11.43
X12.7Y-16.51
X15.24Y-12.7
X15.24Y-17.78
X17.78Y-8.89
X17.78Y-13.97
X20.32Y-10.16
X20.32Y-15.24
X22.86Y-11.43
X22.86Y-16.51
X25.4Y-12.7
X25.4Y-17.78
X27.94Y-8.89
X27.94Y-13.97
X30.48Y-10.16
X30.48Y-15.24
X33.02Y-11.43
X33.02Y-16.51
X35.56Y-12.7
X35.56Y-17.78
X38.1Y-8.89
X38.1Y-13.97
X40.64Y-10.16
X40.64Y-15.24
X43.18Y-11.43
X43.18Y-16.51
X45.72Y-12.7
X45.72Y-17.78
X48.26Y-8.89
X48.26Y-13.97
X50.8Y-10.16
X50.8Y-15.24
X53.34Y-11.43
X53.34Y-16.51
X55.88Y-12.7
X55.88Y-17.78
X58.42Y-8.89
X58.42Y-13.97
X60.96Y-10.16
X60.96Y-15.24
X63.5Y-11.43
X63.5Y-16.51
X66.04Y-12.7
X66.04Y-17.78
X68.58Y-8.89
X68.58Y-13.97
X71.12Y-10.16
X71.12Y-15.24
X73.66Y-11.43
X73.66Y-16.51
X76.2Y-12.7
X76.2Y-17.78
X78.74Y-8.89
X78.74Y-13.97
X81.28Y-10.16
X81.28Y-15.24
X83.82Y-11.43
X83.82Y-16.51
X86.36Y-12.7
X86.36Y-17.78
X88.9Y-8.89
X88.9Y-13.97
X91.44Y-10.16
X91.44Y-15.24
X93.98Y-11.43
X93.98Y-16.51
X96.52Y-12.7
X96.52Y-17.78
X99.06Y-8.89
X99.06Y-13.97
X101.6Y-10.16
X101.6Y-15.24
X104.14Y-11.43
X104.14Y-16.51
X106.68Y-12.7
X106.68Y-17.78
X109.22Y-8.89
X109.22Y-13.97
X111.76Y-10.16
X111.76Y-15.24
X114.3Y-11.43
X114.3Y-16.51
X116.84Y-12.7
X116.84Y-17.78
X119.38Y-8.89
X119.38Y-13.97
X121.92Y-10.16
X121.92Y-15.24
X124.46Y-11.43
X124.46Y-16.51
X127.0Y-12.7
X127.0Y-17.78
X145.542Y-11.5
X150.622Y-11.5
X180.975Y-2.54
X180.975Y-5.08
X180.975Y-7.62
X186.055Y-2.54
X186.055Y-5.08
X186.055Y-7.62
X188.595Y-2.54
X188.595Y-7.62
X191.135Y-2.54
X191.135Y-7.62
X197.155Y-9.5
X197.955Y-8.3
X198.755Y-9.5
X199.555Y-8.3
X200.355Y-9.5
X200.66Y-12.68
X200.66Y-17.78
X213.995Y-12.7
X213.995Y-15.24
X213.995Y-17.78
X213.995Y-20.32
X219.075Y-12.7
X219.075Y-15.24
X219.075Y-17.78
X219.075Y-20.32
T4
X145.542Y-22.352
X175.895Y-14.859
T5
X145.542Y-16.51
X145.542Y-19.05
X148.082Y-16.51
X148.082Y-19.05
X150.622Y-16.51
X150.622Y-19.05
X158.115Y-5.08
X158.115Y-7.58
X158.115Y-10.16
X158.115Y-17.78
X160.655Y-10.16
X160.655Y-17.78
X163.195Y-10.16
X163.195Y-17.78
X163.295Y-5.715
X165.735Y-10.16
X165.735Y-17.78
X168.175Y-5.715
X168.275Y-10.16
X168.275Y-17.78
X170.815Y-10.16
X170.815Y-17.78
X170.815Y-20.32
X173.355Y-5.08
X173.355Y-7.58
X173.355Y-10.16
X173.355Y-17.78
X175.815Y-20.32
X175.895Y-2.62
X175.895Y-7.62
X175.895Y-10.16
X175.895Y-17.78
X178.435Y-10.16
X178.435Y-17.78
X180.975Y-10.16
X180.975Y-17.78
X183.515Y-10.16
X183.515Y-17.78
X186.055Y-10.16
X186.055Y-17.78
X188.595Y-10.16
X188.595Y-17.78
X191.135Y-10.16
X191.135Y-17.78
T6
X208.915Y-8.255
X211.455Y-8.255
X215.265Y-8.255
X217.805Y-8.255
T7
X209.55Y-2.54
X212.09Y-2.54
X214.63Y-2.54
X217.17Y-2.54
T8
X131.93Y-3.81
X131.93Y-8.31
X138.43Y-3.81
X138.43Y-8.31
X144.63Y-3.81
X144.63Y-8.31
X151.13Y-3.81
X151.13Y-8.31
T9
X5.69Y-28.96
X5.69Y-47.96
X5.69Y-66.96
X5.69Y-85.96
X12.04Y-26.42
X12.04Y-45.42
X12.04Y-64.42
X12.04Y-83.42
X24.69Y-28.96
X24.69Y-47.96
X24.69Y-66.96
X24.69Y-85.96
X31.04Y-26.42
X31.04Y-45.42
X31.04Y-64.42
X31.04Y-83.42
X43.69Y-28.96
X43.69Y-47.96
X43.69Y-66.96
X43.69Y-85.96
X50.04Y-26.42
X50.04Y-45.42
X50.04Y-64.42
X50.04Y-83.42
X62.69Y-28.96
X62.69Y-47.96
X62.69Y-66.96
X62.69Y-85.96
X69.04Y-26.42
X69.04Y-45.42
X69.04Y-64.42
X69.04Y-83.42
X81.69Y-28.96
X81.69Y-47.96
X81.69Y-66.96
X81.69Y-85.96
X88.04Y-26.42
X88.04Y-45.42
X88.04Y-64.42
X88.04Y-83.42
X100.69Y-28.96
X100.69Y-47.96
X100.69Y-66.96
X100.69Y-85.96
X107.04Y-26.42
X107.04Y-45.42
X107.04Y-64.42
X107.04Y-83.42
X110.19Y-85.96
X116.54Y-83.42
X119.69Y-28.96
X119.69Y-47.96
X119.69Y-66.96
X120.96Y-93.58
X126.04Y-26.42
X126.04Y-45.42
X126.04Y-64.42
X127.31Y-91.04
X138.69Y-28.96
X138.69Y-47.96
X138.69Y-66.96
X138.69Y-85.96
X145.04Y-26.42
X145.04Y-45.42
X145.04Y-64.42
X145.04Y-83.42
X157.69Y-28.96
X157.69Y-47.96
X157.69Y-66.96
X157.69Y-85.96
X164.04Y-26.42
X164.04Y-45.42
X164.04Y-64.42
X164.04Y-83.42
X176.69Y-28.96
X176.69Y-47.96
X176.69Y-66.96
X176.69Y-85.96
X183.04Y-26.42
X183.04Y-45.42
X183.04Y-64.42
X183.04Y-83.42
X195.69Y-28.96
X195.69Y-47.96
X195.69Y-66.96
X195.69Y-85.96
X202.04Y-26.42
X202.04Y-45.42
X202.04Y-64.42
X202.04Y-83.42
X214.69Y-28.96
X214.69Y-47.96
X214.69Y-66.96
X214.69Y-85.96
X221.04Y-26.42
X221.04Y-45.42
X221.04Y-64.42
X221.04Y-83.42
T10
X4.0Y-4.0
X4.0Y-18.0
X19.0Y-60.0
X57.0Y-41.0
X57.0Y-79.0
X171.0Y-41.0
X171.0Y-79.0
X209.0Y-60.0
X224.0Y-4.0
X224.0Y-18.0
T5
G00X195.055Y-4.4
M15
G01X195.055Y-3.3
M16
G05
G00X195.055Y-9.15
M15
G01X195.055Y-8.05
M16
G05
G00X202.455Y-4.4
M15
G01X202.455Y-3.3
M16
G05
G00X202.455Y-9.15
M15
G01X202.455Y-8.05
M16
G05
M30
