%TF.GenerationSoftware,Novarm,DipTrace,4.3.0.6*%
%TF.CreationDate,2025-06-06T17:38:16+00:00*%
%FSLAX35Y35*%
%MOMM*%
%TF.FileFunction,Drawing,Top*%
%TF.Part,Single*%
G75*
G01*
%LPD*%
G36*
X117727Y2946776D2*
X87727Y2916776D1*
X81061Y2906776D1*
X74394Y2893443D1*
X67727Y2873443D1*
X64394Y2856776D1*
Y2476776D1*
X84394D1*
Y2710110D1*
X156616Y2713443D1*
X228839D1*
X301061Y2710110D1*
Y2476776D1*
X321061D1*
Y2863443D1*
X317727Y2876776D1*
X314394Y2886776D1*
X301061Y2913443D1*
X287727Y2930110D1*
X284394Y2933443D1*
X267727Y2946776D1*
X257727Y2953443D1*
X244394Y2960110D1*
X224394Y2966776D1*
X204394Y2970110D1*
X181061D1*
X161061Y2966776D1*
X141061Y2960110D1*
X127727Y2953443D1*
X117727Y2946776D1*
X181061D1*
X188839Y2950110D1*
X196616D1*
X204394Y2946776D1*
X224394Y2943443D1*
X234394Y2940110D1*
X254394Y2930110D1*
X284394Y2900110D1*
Y2896776D1*
X291061Y2883443D1*
X294394Y2873443D1*
X297727Y2860110D1*
X301061Y2856776D1*
Y2736776D1*
X228839Y2733443D1*
X156616D1*
X84394Y2736776D1*
Y2856776D1*
X87727Y2860110D1*
X91061Y2873443D1*
X94394Y2883443D1*
X97727Y2890110D1*
X104394Y2900110D1*
Y2903443D1*
X127727Y2926776D1*
X134394Y2930110D1*
X137727Y2933443D1*
X151061Y2940110D1*
X161061Y2943443D1*
X181061Y2946776D1*
X117727D1*
G37*
G36*
X451061Y2710110D2*
Y2476776D1*
X597727D1*
X614394Y2480110D1*
X624394Y2483443D1*
X644394Y2493443D1*
X654394Y2500110D1*
X684394Y2530110D1*
X691061Y2540110D1*
X701061Y2560110D1*
X704394Y2573443D1*
X707727Y2590110D1*
Y2620110D1*
X704394Y2636776D1*
X697727Y2656776D1*
X687727Y2676776D1*
X654394Y2710110D1*
X644394Y2716776D1*
X637727Y2720110D1*
X634394Y2723443D1*
X641061Y2726776D1*
X661061Y2740110D1*
X681061Y2760110D1*
X687727Y2770110D1*
X701061Y2796776D1*
X704394Y2806776D1*
X707727Y2826776D1*
Y2856776D1*
X704394Y2873443D1*
X697727Y2893443D1*
X691061Y2906776D1*
X684394Y2916776D1*
X654394Y2946776D1*
X644394Y2953443D1*
X631061Y2960110D1*
X611061Y2966776D1*
X591061Y2970110D1*
X451061D1*
Y2946776D1*
X471061D1*
X511061Y2950110D1*
X551061D1*
X591061Y2946776D1*
X611061Y2943443D1*
X621061Y2940110D1*
X641061Y2930110D1*
X671061Y2900110D1*
Y2896776D1*
X681061Y2876776D1*
X684394Y2863443D1*
X687727Y2860110D1*
Y2823443D1*
X684394Y2820110D1*
X681061Y2806776D1*
X677727Y2796776D1*
X674394Y2790110D1*
X667727Y2780110D1*
Y2776776D1*
X647727Y2756776D1*
X641061Y2753443D1*
X637727Y2750110D1*
X617727Y2740110D1*
X604394Y2736776D1*
X559950Y2733443D1*
X515505D1*
X471061Y2736776D1*
Y2946776D1*
X451061D1*
Y2710110D1*
X471061D1*
X514394Y2713443D1*
X557727D1*
X601061Y2710110D1*
X614394Y2706776D1*
X624394Y2703443D1*
X631061Y2700110D1*
X634394Y2696776D1*
X644394Y2690110D1*
X651061Y2686776D1*
X664394Y2673443D1*
Y2670110D1*
X674394Y2656776D1*
X677727Y2650110D1*
X681061Y2640110D1*
X684394Y2626776D1*
X687727Y2623443D1*
Y2586776D1*
X684394Y2583443D1*
X681061Y2570110D1*
X677727Y2560110D1*
X674394Y2553443D1*
X664394Y2540110D1*
Y2536776D1*
X651061Y2523443D1*
X644394Y2520110D1*
X634394Y2513443D1*
X614394Y2503443D1*
X597727Y2500110D1*
X555505Y2496776D1*
X513283D1*
X471061Y2500110D1*
Y2710110D1*
X451061D1*
G37*
G36*
X954394Y2970110D2*
X934394Y2966776D1*
X914394Y2960110D1*
X907727Y2956776D1*
X887727Y2943443D1*
X864394Y2920110D1*
X851061Y2900110D1*
X847727Y2893443D1*
X841061Y2873443D1*
X837727Y2856776D1*
Y2590110D1*
X841061Y2573443D1*
X847727Y2553443D1*
X854394Y2540110D1*
X861061Y2530110D1*
X891061Y2500110D1*
X901061Y2493443D1*
X921061Y2483443D1*
X931061Y2480110D1*
X947727Y2476776D1*
X984394D1*
X1001061Y2480110D1*
X1011061Y2483443D1*
X1031061Y2493443D1*
X1041061Y2500110D1*
X1071061Y2530110D1*
X1077727Y2540110D1*
X1087727Y2560110D1*
X1091061Y2573443D1*
X1094394Y2590110D1*
Y2603443D1*
X1074394D1*
X1071061Y2583443D1*
X1067727Y2570110D1*
X1064394Y2560110D1*
X1061061Y2553443D1*
X1051061Y2540110D1*
Y2536776D1*
X1037727Y2523443D1*
X1031061Y2520110D1*
X1021061Y2513443D1*
X1001061Y2503443D1*
X984394Y2500110D1*
X972172Y2496776D1*
X959950D1*
X947727Y2500110D1*
X931061Y2503443D1*
X904394Y2516776D1*
X874394Y2546776D1*
Y2550110D1*
X864394Y2570110D1*
X861061Y2586776D1*
X857727Y2590110D1*
Y2856776D1*
X861061Y2860110D1*
X864394Y2873443D1*
X867727Y2883443D1*
X871061Y2890110D1*
X877727Y2900110D1*
Y2903443D1*
X901061Y2926776D1*
X907727Y2930110D1*
X911061Y2933443D1*
X924394Y2940110D1*
X934394Y2943443D1*
X954394Y2946776D1*
X962172Y2950110D1*
X969950D1*
X977727Y2946776D1*
X997727Y2943443D1*
X1007727Y2940110D1*
X1027727Y2930110D1*
X1057727Y2900110D1*
Y2896776D1*
X1067727Y2876776D1*
X1071061Y2863443D1*
X1074394Y2843443D1*
X1094394D1*
Y2856776D1*
X1091061Y2873443D1*
X1084394Y2893443D1*
X1077727Y2906776D1*
X1071061Y2916776D1*
X1041061Y2946776D1*
X1031061Y2953443D1*
X1017727Y2960110D1*
X997727Y2966776D1*
X977727Y2970110D1*
X954394D1*
G37*
G36*
X1224394Y2946776D2*
Y2476776D1*
X1371061D1*
X1387727Y2480110D1*
X1397727Y2483443D1*
X1417727Y2493443D1*
X1427727Y2500110D1*
X1457727Y2530110D1*
X1464394Y2540110D1*
X1474394Y2560110D1*
X1477727Y2573443D1*
X1481061Y2590110D1*
Y2856776D1*
X1477727Y2873443D1*
X1471061Y2893443D1*
X1464394Y2906776D1*
X1457727Y2916776D1*
X1427727Y2946776D1*
X1417727Y2953443D1*
X1404394Y2960110D1*
X1384394Y2966776D1*
X1364394Y2970110D1*
X1224394D1*
Y2946776D1*
X1244394D1*
X1284394Y2950110D1*
X1324394D1*
X1364394Y2946776D1*
X1384394Y2943443D1*
X1394394Y2940110D1*
X1414394Y2930110D1*
X1444394Y2900110D1*
Y2896776D1*
X1454394Y2876776D1*
X1457727Y2863443D1*
X1461061Y2860110D1*
Y2586776D1*
X1457727Y2583443D1*
X1454394Y2570110D1*
X1451061Y2560110D1*
X1447727Y2553443D1*
X1437727Y2540110D1*
Y2536776D1*
X1424394Y2523443D1*
X1417727Y2520110D1*
X1407727Y2513443D1*
X1387727Y2503443D1*
X1371061Y2500110D1*
X1328839Y2496776D1*
X1286616D1*
X1244394Y2500110D1*
Y2946776D1*
X1224394D1*
G37*
G36*
X1611061Y2970110D2*
Y2476776D1*
X1867727D1*
Y2496776D1*
X1631061Y2500110D1*
Y2710110D1*
X1867727Y2713443D1*
Y2733443D1*
X1631061Y2736776D1*
Y2946776D1*
X1867727Y2950110D1*
Y2970110D1*
X1611061D1*
G37*
G36*
X1997727D2*
Y2476776D1*
X2017727D1*
Y2710110D1*
X2254394Y2713443D1*
Y2733443D1*
X2017727Y2736776D1*
Y2946776D1*
X2254394Y2950110D1*
Y2970110D1*
X1997727D1*
G37*
G36*
X2511061D2*
X2484394Y2966776D1*
X2464394Y2960110D1*
X2444394Y2950110D1*
X2431061Y2940110D1*
X2411061Y2920110D1*
X2404394Y2910110D1*
X2391061Y2883443D1*
X2387727Y2873443D1*
X2384394Y2856776D1*
Y2586776D1*
X2387727Y2570110D1*
X2391061Y2560110D1*
X2401061Y2540110D1*
X2407727Y2530110D1*
X2441061Y2496776D1*
X2457727Y2486776D1*
X2477727Y2480110D1*
X2491061Y2476776D1*
X2537727D1*
X2551061Y2480110D1*
X2567727Y2486776D1*
X2574394Y2490110D1*
X2584394Y2496776D1*
X2601061Y2510110D1*
X2607727Y2516776D1*
X2621061Y2533443D1*
X2634394Y2560110D1*
X2637727Y2570110D1*
X2641061Y2590110D1*
Y2730110D1*
X2637727Y2733443D1*
X2517727D1*
X2514394Y2730110D1*
Y2713443D1*
X2621061Y2710110D1*
Y2586776D1*
X2617727Y2583443D1*
X2614394Y2570110D1*
X2611061Y2560110D1*
X2607727Y2553443D1*
X2601061Y2543443D1*
Y2540110D1*
X2581061Y2520110D1*
X2574394Y2516776D1*
X2571061Y2513443D1*
X2557727Y2506776D1*
X2537727Y2500110D1*
X2521061Y2496776D1*
X2504394D1*
X2487727Y2500110D1*
X2467727Y2506776D1*
X2454394Y2513443D1*
X2447727Y2520110D1*
X2441061Y2523443D1*
X2427727Y2536776D1*
Y2540110D1*
X2414394Y2560110D1*
X2411061Y2570110D1*
X2407727Y2586776D1*
X2404394Y2590110D1*
Y2856776D1*
X2407727Y2860110D1*
X2411061Y2873443D1*
X2414394Y2883443D1*
X2417727Y2890110D1*
X2424394Y2900110D1*
Y2903443D1*
X2444394Y2923443D1*
X2451061Y2926776D1*
X2454394Y2930110D1*
X2474394Y2940110D1*
X2484394Y2943443D1*
X2503283Y2946776D1*
X2522172D1*
X2541061Y2943443D1*
X2561061Y2936776D1*
X2567727Y2933443D1*
X2571061Y2930110D1*
X2577727Y2926776D1*
X2604394Y2900110D1*
Y2896776D1*
X2614394Y2876776D1*
X2617727Y2863443D1*
X2621061Y2840110D1*
X2637727D1*
X2641061Y2843443D1*
Y2856776D1*
X2637727Y2873443D1*
X2631061Y2893443D1*
X2627727Y2900110D1*
X2614394Y2920110D1*
X2591061Y2943443D1*
X2581061Y2950110D1*
X2554394Y2963443D1*
X2541061Y2966776D1*
X2514394Y2970110D1*
X2511061D1*
G37*
G36*
X2771061D2*
Y2476776D1*
X2791061D1*
Y2710110D1*
X2863283Y2713443D1*
X2935505D1*
X3007727Y2710110D1*
Y2476776D1*
X3027727D1*
Y2970110D1*
X3007727D1*
Y2736776D1*
X2935505Y2733443D1*
X2863283D1*
X2791061Y2736776D1*
Y2970110D1*
X2771061D1*
G37*
G36*
X3157727D2*
Y2950110D1*
X3274394Y2946776D1*
X3277727Y2943443D1*
Y2500110D1*
X3157727Y2496776D1*
Y2476776D1*
X3414394D1*
Y2496776D1*
X3297727Y2500110D1*
Y2946776D1*
X3414394Y2950110D1*
Y2970110D1*
X3157727D1*
G37*
G36*
X3781061D2*
Y2586776D1*
X3777727Y2583443D1*
X3774394Y2570110D1*
X3771061Y2560110D1*
X3767727Y2553443D1*
X3757727Y2540110D1*
Y2536776D1*
X3744394Y2523443D1*
X3737727Y2520110D1*
X3727727Y2513443D1*
X3707727Y2503443D1*
X3691061Y2500110D1*
X3678839Y2496776D1*
X3666616D1*
X3654394Y2500110D1*
X3637727Y2503443D1*
X3611061Y2516776D1*
X3581061Y2546776D1*
Y2550110D1*
X3571061Y2570110D1*
X3564394Y2603443D1*
X3544394D1*
Y2590110D1*
X3547727Y2573443D1*
X3554394Y2553443D1*
X3561061Y2540110D1*
X3567727Y2530110D1*
X3597727Y2500110D1*
X3607727Y2493443D1*
X3627727Y2483443D1*
X3637727Y2480110D1*
X3654394Y2476776D1*
X3691061D1*
X3707727Y2480110D1*
X3717727Y2483443D1*
X3737727Y2493443D1*
X3747727Y2500110D1*
X3777727Y2530110D1*
X3784394Y2540110D1*
X3794394Y2560110D1*
X3797727Y2573443D1*
X3801061Y2590110D1*
Y2970110D1*
X3781061D1*
G37*
G36*
X64394Y2190110D2*
Y1696776D1*
X84394D1*
Y1910110D1*
X87956Y1912335D1*
X91061Y1913443D1*
X304394Y1700110D1*
X307727D1*
X317727Y1710110D1*
Y1713443D1*
X91061Y1940110D1*
Y1943443D1*
X321061Y2173443D1*
X307727Y2186776D1*
X304394D1*
X91061Y1973443D1*
X87526Y1969823D1*
X85800Y1970364D1*
X84394Y1973443D1*
Y2190110D1*
X64394D1*
G37*
G36*
X451061D2*
Y1696776D1*
X707727D1*
Y1716776D1*
X471061Y1720110D1*
Y2190110D1*
X451061D1*
G37*
G36*
X837727D2*
Y1696776D1*
X857727D1*
Y2123443D1*
X860217Y2125584D1*
X861944Y2125389D1*
X864236Y2123111D1*
X866023Y2120045D1*
X964394Y1923443D1*
X967727Y1920110D1*
X1067727Y2120110D1*
X1068272Y2122688D1*
X1070316Y2125420D1*
X1071959Y2125342D1*
X1074394Y2123443D1*
Y1696776D1*
X1094394D1*
Y2190110D1*
X1077727D1*
X971061Y1976776D1*
X969848Y1972678D1*
X966300Y1969839D1*
X963282Y1970367D1*
X959950Y1974264D1*
X961061Y1976776D1*
X854394Y2190110D1*
X837727D1*
G37*
G36*
X1224394D2*
Y1696776D1*
X1244394D1*
Y2123443D1*
X1246884Y2125584D1*
X1248611Y2125389D1*
X1250903Y2123111D1*
X1252690Y2120045D1*
X1464394Y1696776D1*
X1481061D1*
Y2190110D1*
X1461061D1*
Y1760110D1*
X1457526Y1756489D1*
X1455809Y1757024D1*
X1453668Y1760694D1*
X1454394Y1763443D1*
X1241061Y2190110D1*
X1224394D1*
G37*
G36*
X1667727Y2166776D2*
X1661061Y2163443D1*
X1637727Y2140110D1*
X1624394Y2120110D1*
X1621061Y2113443D1*
X1614394Y2093443D1*
X1611061Y2076776D1*
Y1810110D1*
X1614394Y1793443D1*
X1621061Y1773443D1*
X1627727Y1760110D1*
X1634394Y1750110D1*
X1664394Y1720110D1*
X1674394Y1713443D1*
X1694394Y1703443D1*
X1704394Y1700110D1*
X1721061Y1696776D1*
X1757727D1*
X1774394Y1700110D1*
X1784394Y1703443D1*
X1804394Y1713443D1*
X1814394Y1720110D1*
X1844394Y1750110D1*
X1851061Y1760110D1*
X1861061Y1780110D1*
X1864394Y1793443D1*
X1867727Y1810110D1*
Y2076776D1*
X1864394Y2093443D1*
X1857727Y2113443D1*
X1851061Y2126776D1*
X1844394Y2136776D1*
X1814394Y2166776D1*
X1804394Y2173443D1*
X1791061Y2180110D1*
X1771061Y2186776D1*
X1751061Y2190110D1*
X1727727D1*
X1707727Y2186776D1*
X1687727Y2180110D1*
X1681061Y2176776D1*
X1671061Y2170110D1*
X1667727Y2166776D1*
X1727727D1*
X1735505Y2170110D1*
X1743283D1*
X1751061Y2166776D1*
X1771061Y2163443D1*
X1781061Y2160110D1*
X1801061Y2150110D1*
X1831061Y2120110D1*
Y2116776D1*
X1841061Y2096776D1*
X1844394Y2083443D1*
X1847727Y2080110D1*
Y1806776D1*
X1844394Y1803443D1*
X1841061Y1790110D1*
X1837727Y1780110D1*
X1834394Y1773443D1*
X1824394Y1760110D1*
Y1756776D1*
X1811061Y1743443D1*
X1804394Y1740110D1*
X1794394Y1733443D1*
X1774394Y1723443D1*
X1757727Y1720110D1*
X1745505Y1716776D1*
X1733283D1*
X1721061Y1720110D1*
X1704394Y1723443D1*
X1677727Y1736776D1*
X1647727Y1766776D1*
Y1770110D1*
X1637727Y1790110D1*
X1634394Y1806776D1*
X1631061Y1810110D1*
Y2076776D1*
X1634394Y2080110D1*
X1637727Y2093443D1*
X1641061Y2103443D1*
X1644394Y2110110D1*
X1651061Y2120110D1*
Y2123443D1*
X1674394Y2146776D1*
X1681061Y2150110D1*
X1684394Y2153443D1*
X1697727Y2160110D1*
X1707727Y2163443D1*
X1727727Y2166776D1*
X1667727D1*
G37*
G36*
X1997727D2*
Y1696776D1*
X2017727D1*
Y1930110D1*
X2151061Y1933443D1*
X2164394Y1936776D1*
X2174394Y1940110D1*
X2187727Y1946776D1*
X2197727Y1953443D1*
X2211061Y1963443D1*
X2224394Y1976776D1*
X2234394Y1990110D1*
X2247727Y2016776D1*
X2251061Y2026776D1*
X2254394Y2043443D1*
Y2076776D1*
X2251061Y2093443D1*
X2244394Y2113443D1*
X2237727Y2126776D1*
X2231061Y2136776D1*
X2201061Y2166776D1*
X2191061Y2173443D1*
X2177727Y2180110D1*
X2157727Y2186776D1*
X2137727Y2190110D1*
X1997727D1*
Y2166776D1*
X2017727D1*
X2057727Y2170110D1*
X2097727D1*
X2137727Y2166776D1*
X2157727Y2163443D1*
X2167727Y2160110D1*
X2187727Y2150110D1*
X2217727Y2120110D1*
Y2116776D1*
X2227727Y2096776D1*
X2231061Y2083443D1*
X2234394Y2080110D1*
Y2043443D1*
X2231061Y2040110D1*
X2227727Y2026776D1*
X2224394Y2016776D1*
X2221061Y2010110D1*
X2214394Y2000110D1*
Y1996776D1*
X2194394Y1976776D1*
X2187727Y1973443D1*
X2184394Y1970110D1*
X2164394Y1960110D1*
X2151061Y1956776D1*
X2106616Y1953443D1*
X2062172D1*
X2017727Y1956776D1*
Y2166776D1*
X1997727D1*
G37*
G36*
X2437727D2*
X2407727Y2136776D1*
X2401061Y2126776D1*
X2394394Y2113443D1*
X2387727Y2093443D1*
X2384394Y2076776D1*
Y1810110D1*
X2387727Y1793443D1*
X2391061Y1780110D1*
X2401061Y1760110D1*
X2407727Y1750110D1*
X2437727Y1720110D1*
X2447727Y1713443D1*
X2467727Y1703443D1*
X2477727Y1700110D1*
X2494394Y1696776D1*
X2531061D1*
X2544394Y1700110D1*
X2564394Y1706776D1*
X2571061Y1710110D1*
X2591061Y1723443D1*
X2593550Y1725584D1*
X2595278Y1725389D1*
X2597727Y1723443D1*
X2624394Y1696776D1*
X2637727Y1710110D1*
Y1713443D1*
X2611061Y1740110D1*
X2611709Y1742473D1*
X2614394Y1746776D1*
X2627727Y1766776D1*
X2631061Y1773443D1*
X2637727Y1793443D1*
X2641061Y1810110D1*
Y2076776D1*
X2637727Y2093443D1*
X2631061Y2113443D1*
X2624394Y2126776D1*
X2617727Y2136776D1*
X2587727Y2166776D1*
X2577727Y2173443D1*
X2564394Y2180110D1*
X2544394Y2186776D1*
X2524394Y2190110D1*
X2501061D1*
X2481061Y2186776D1*
X2461061Y2180110D1*
X2447727Y2173443D1*
X2437727Y2166776D1*
X2501061D1*
X2508839Y2170110D1*
X2516616D1*
X2524394Y2166776D1*
X2544394Y2163443D1*
X2554394Y2160110D1*
X2567727Y2153443D1*
X2571061Y2150110D1*
X2577727Y2146776D1*
X2601061Y2123443D1*
Y2120110D1*
X2607727Y2110110D1*
X2611061Y2103443D1*
X2614394Y2093443D1*
X2617727Y2080110D1*
X2621061Y2076776D1*
Y1810110D1*
X2617727Y1806776D1*
X2614394Y1793443D1*
X2611061Y1783443D1*
X2607727Y1776776D1*
X2601061Y1766776D1*
X2599380Y1763434D1*
X2597445Y1759953D1*
X2594188Y1756481D1*
X2592472Y1757030D1*
X2591061Y1760110D1*
X2521061Y1830110D1*
X2517727D1*
X2507727Y1816776D1*
Y1813443D1*
X2554394Y1766776D1*
X2561061Y1763443D1*
X2581061Y1743443D1*
X2574394Y1736776D1*
X2554394Y1726776D1*
X2544394Y1723443D1*
X2531061Y1720110D1*
X2518839Y1716776D1*
X2506616D1*
X2494394Y1720110D1*
X2471061Y1726776D1*
X2461061Y1730110D1*
X2457727Y1733443D1*
X2447727Y1740110D1*
X2441061Y1743443D1*
X2427727Y1756776D1*
Y1760110D1*
X2417727Y1773443D1*
X2414394Y1780110D1*
X2411061Y1790110D1*
X2407727Y1803443D1*
X2404394Y1806776D1*
Y2080110D1*
X2407727Y2083443D1*
X2411061Y2096776D1*
X2414394Y2106776D1*
X2421061Y2116776D1*
Y2120110D1*
X2451061Y2150110D1*
X2471061Y2160110D1*
X2481061Y2163443D1*
X2501061Y2166776D1*
X2437727D1*
G37*
G36*
X2771061D2*
Y1696776D1*
X2791061D1*
Y1910110D1*
X2794623Y1912335D1*
X2797727Y1913443D1*
X3011061Y1700110D1*
X3014394D1*
X3024394Y1710110D1*
Y1713443D1*
X2811061Y1926776D1*
Y1930110D1*
X2924394Y1933443D1*
X2937727Y1936776D1*
X2947727Y1940110D1*
X2961061Y1946776D1*
X2971061Y1953443D1*
X2984394Y1963443D1*
X2997727Y1976776D1*
X3007727Y1990110D1*
X3021061Y2016776D1*
X3024394Y2026776D1*
X3027727Y2043443D1*
Y2076776D1*
X3024394Y2093443D1*
X3017727Y2113443D1*
X3011061Y2126776D1*
X3004394Y2136776D1*
X2974394Y2166776D1*
X2964394Y2173443D1*
X2951061Y2180110D1*
X2931061Y2186776D1*
X2911061Y2190110D1*
X2771061D1*
Y2166776D1*
X2791061D1*
X2831061Y2170110D1*
X2871061D1*
X2911061Y2166776D1*
X2931061Y2163443D1*
X2941061Y2160110D1*
X2961061Y2150110D1*
X2991061Y2120110D1*
Y2116776D1*
X3001061Y2096776D1*
X3004394Y2083443D1*
X3007727Y2080110D1*
Y2043443D1*
X3004394Y2040110D1*
X3001061Y2026776D1*
X2997727Y2016776D1*
X2994394Y2010110D1*
X2987727Y2000110D1*
Y1996776D1*
X2967727Y1976776D1*
X2961061Y1973443D1*
X2957727Y1970110D1*
X2937727Y1960110D1*
X2924394Y1956776D1*
X2879950Y1953443D1*
X2835505D1*
X2791061Y1956776D1*
Y2166776D1*
X2771061D1*
G37*
G36*
X3274394Y2190110D2*
X3254394Y2186776D1*
X3234394Y2180110D1*
X3227727Y2176776D1*
X3207727Y2163443D1*
X3184394Y2140110D1*
X3171061Y2120110D1*
X3167727Y2110110D1*
X3164394Y2103443D1*
X3161061Y2090110D1*
X3157727Y2070110D1*
Y2050110D1*
X3161061Y2030110D1*
X3167727Y2010110D1*
X3174394Y1996776D1*
X3181061Y1986776D1*
X3214394Y1953443D1*
X3241061Y1940110D1*
X3251061Y1936776D1*
X3264394Y1933443D1*
X3307727Y1930110D1*
X3321061Y1926776D1*
X3331061Y1923443D1*
X3337727Y1920110D1*
X3341061Y1916776D1*
X3351061Y1910110D1*
X3357727Y1906776D1*
X3371061Y1893443D1*
Y1890110D1*
X3384394Y1870110D1*
X3387727Y1860110D1*
X3391061Y1846776D1*
X3394394Y1843443D1*
Y1806776D1*
X3391061Y1803443D1*
X3387727Y1790110D1*
X3384394Y1780110D1*
X3381061Y1773443D1*
X3371061Y1760110D1*
Y1756776D1*
X3357727Y1743443D1*
X3351061Y1740110D1*
X3341061Y1733443D1*
X3321061Y1723443D1*
X3304394Y1720110D1*
X3292172Y1716776D1*
X3279950D1*
X3267727Y1720110D1*
X3251061Y1723443D1*
X3224394Y1736776D1*
X3194394Y1766776D1*
Y1770110D1*
X3184394Y1790110D1*
X3177727Y1823443D1*
X3157727D1*
Y1813443D1*
X3161061Y1793443D1*
X3167727Y1773443D1*
X3174394Y1760110D1*
X3181061Y1750110D1*
X3211061Y1720110D1*
X3221061Y1713443D1*
X3241061Y1703443D1*
X3251061Y1700110D1*
X3267727Y1696776D1*
X3304394D1*
X3321061Y1700110D1*
X3341061Y1706776D1*
X3347727Y1710110D1*
X3357727Y1716776D1*
X3371061Y1726776D1*
X3384394Y1740110D1*
X3394394Y1753443D1*
X3401061Y1763443D1*
X3404394Y1770110D1*
X3411061Y1790110D1*
X3414394Y1803443D1*
Y1846776D1*
X3411061Y1860110D1*
X3407727Y1870110D1*
X3394394Y1896776D1*
X3384394Y1910110D1*
X3374394Y1920110D1*
X3357727Y1933443D1*
X3331061Y1946776D1*
X3317727Y1950110D1*
X3301061Y1953443D1*
X3261061Y1956776D1*
X3241061Y1963443D1*
X3227727Y1970110D1*
X3224394Y1973443D1*
X3217727Y1976776D1*
X3201061Y1993443D1*
Y1996776D1*
X3191061Y2010110D1*
X3187727Y2016776D1*
X3184394Y2026776D1*
X3181061Y2043443D1*
X3177727Y2046776D1*
Y2076776D1*
X3181061Y2080110D1*
X3184394Y2093443D1*
X3187727Y2103443D1*
X3191061Y2110110D1*
X3197727Y2120110D1*
Y2123443D1*
X3221061Y2146776D1*
X3227727Y2150110D1*
X3231061Y2153443D1*
X3237727Y2156776D1*
X3257727Y2163443D1*
X3276616Y2166776D1*
X3295505D1*
X3314394Y2163443D1*
X3334394Y2156776D1*
X3341061Y2153443D1*
X3344394Y2150110D1*
X3351061Y2146776D1*
X3377727Y2120110D1*
Y2116776D1*
X3387727Y2096776D1*
X3391061Y2083443D1*
X3394394Y2063443D1*
X3414394D1*
Y2083443D1*
X3411061Y2096776D1*
X3407727Y2106776D1*
X3394394Y2133443D1*
X3381061Y2150110D1*
X3377727Y2153443D1*
X3361061Y2166776D1*
X3351061Y2173443D1*
X3337727Y2180110D1*
X3317727Y2186776D1*
X3297727Y2190110D1*
X3274394D1*
G37*
G36*
X3544394D2*
Y2170110D1*
X3661061Y2166776D1*
X3664394Y2163443D1*
Y1696776D1*
X3684394D1*
Y2166776D1*
X3801061Y2170110D1*
Y2190110D1*
X3544394D1*
G37*
G36*
X64394Y1410110D2*
Y1030110D1*
X67727Y1013443D1*
X74394Y993443D1*
X81061Y980110D1*
X87727Y970110D1*
X117727Y940110D1*
X127727Y933443D1*
X147727Y923443D1*
X157727Y920110D1*
X174394Y916776D1*
X211061D1*
X227727Y920110D1*
X237727Y923443D1*
X257727Y933443D1*
X267727Y940110D1*
X297727Y970110D1*
X304394Y980110D1*
X314394Y1000110D1*
X317727Y1013443D1*
X321061Y1030110D1*
Y1410110D1*
X301061D1*
X297727Y1026776D1*
X294394Y1010110D1*
X284394Y990110D1*
X277727Y980110D1*
Y976776D1*
X264394Y963443D1*
X257727Y960110D1*
X247727Y953443D1*
X227727Y943443D1*
X211061Y940110D1*
X198839Y936776D1*
X186616D1*
X174394Y940110D1*
X157727Y943443D1*
X131061Y956776D1*
X101061Y986776D1*
Y990110D1*
X91061Y1010110D1*
X87727Y1026776D1*
X84394Y1410110D1*
X64394D1*
G37*
G36*
X451061D2*
Y1163443D1*
X461061Y1143443D1*
X464394Y1133443D1*
X571061Y920110D1*
X574394Y916776D1*
X584394D1*
X587727Y920110D1*
X707727Y1160110D1*
Y1410110D1*
X687727D1*
X684394Y1160110D1*
X584394Y960110D1*
X583181Y956011D1*
X579634Y953172D1*
X576616Y953701D1*
X573284Y957597D1*
X574394Y960110D1*
X474394Y1160110D1*
X471061Y1410110D1*
X451061D1*
G37*
G36*
X837727D2*
Y916776D1*
X854394D1*
X857727Y920110D1*
X962741Y1130088D1*
X964546Y1133167D1*
X966912Y1135529D1*
X968574Y1135291D1*
X970466Y1132547D1*
X971061Y1130110D1*
X1077727Y916776D1*
X1094394D1*
Y1410110D1*
X1074394D1*
Y980110D1*
X1070860Y976489D1*
X1069142Y977024D1*
X1067001Y980694D1*
X1067727Y983443D1*
X967727Y1183443D1*
X964394D1*
X864394Y983443D1*
X863548Y979510D1*
X860866Y976469D1*
X859140Y977030D1*
X857727Y980110D1*
Y1410110D1*
X837727D1*
G37*
G36*
X1997727D2*
Y1390110D1*
X2224394Y1386776D1*
Y1380110D1*
X2221061Y1376776D1*
X1991061Y916776D1*
X2254394D1*
Y936776D1*
X2027727Y940110D1*
X2028376Y942473D1*
X2031061Y946776D1*
X2087727Y1060110D1*
X2091061Y1070110D1*
X2261061Y1410110D1*
X1997727D1*
G37*
G36*
X1237727Y1406776D2*
X1231061Y1400110D1*
X1224394Y1396776D1*
X1337727Y1170110D1*
X1341061Y1166776D1*
Y1160110D1*
X1337727Y1156776D1*
X1224394Y930110D1*
X1227727Y926776D1*
X1241061Y916776D1*
X1244394Y920110D1*
X1349407Y1130088D1*
X1351212Y1133167D1*
X1353579Y1135529D1*
X1355240Y1135291D1*
X1357133Y1132547D1*
X1357727Y1130110D1*
X1464394Y916776D1*
X1477727Y926776D1*
X1481061Y930110D1*
X1367727Y1156776D1*
X1363774Y1160524D1*
X1364804Y1162750D1*
X1367727Y1166776D1*
X1441061Y1313443D1*
X1444394Y1323443D1*
X1481061Y1396776D1*
X1467727Y1406776D1*
X1464394D1*
X1461061Y1403443D1*
X1357727Y1196776D1*
X1356514Y1192678D1*
X1352967Y1189839D1*
X1349949Y1190367D1*
X1346617Y1194264D1*
X1347727Y1196776D1*
X1244394Y1403443D1*
X1241061Y1406776D1*
X1237727D1*
G37*
G36*
X1624394D2*
X1617727Y1400110D1*
X1611061Y1396776D1*
X1657727Y1303443D1*
X1661061Y1293443D1*
X1724394Y1166776D1*
X1727727Y916776D1*
X1747727D1*
X1751061Y1163443D1*
X1867727Y1396776D1*
X1854394Y1406776D1*
X1851061D1*
X1847727Y1403443D1*
X1744394Y1196776D1*
X1743181Y1192678D1*
X1739634Y1189839D1*
X1736616Y1190367D1*
X1733284Y1194264D1*
X1734394Y1196776D1*
X1631061Y1403443D1*
X1627727Y1406776D1*
X1624394D1*
G37*
G36*
X71061Y546776D2*
Y540110D1*
X67727Y536776D1*
X64394Y520110D1*
Y253443D1*
X67727Y236776D1*
X71061Y223443D1*
X81061Y203443D1*
X87727Y193443D1*
X117727Y163443D1*
X127727Y156776D1*
X147727Y146776D1*
X157727Y143443D1*
X174394Y140110D1*
X214394D1*
X241061Y146776D1*
X261061Y156776D1*
X271061Y163443D1*
X291061Y183443D1*
X304394Y203443D1*
X314394Y223443D1*
X317727Y233443D1*
X321061Y246776D1*
Y526776D1*
X317727Y540110D1*
X314394Y550110D1*
X301061Y576776D1*
X287727Y593443D1*
X284394Y596776D1*
X267727Y610110D1*
X257727Y616776D1*
X244394Y623443D1*
X224394Y630110D1*
X204394Y633443D1*
X181061D1*
X161061Y630110D1*
X141061Y623443D1*
X127727Y616776D1*
X117727Y610110D1*
X181061D1*
X188839Y613443D1*
X196616D1*
X204394Y610110D1*
X224394Y606776D1*
X234394Y603443D1*
X254394Y593443D1*
X284394Y563443D1*
Y560110D1*
X291061Y546776D1*
X294394Y536776D1*
X297727Y523443D1*
X301061Y520110D1*
Y253443D1*
X297727Y250110D1*
X294394Y236776D1*
X291061Y226776D1*
X290215Y222844D1*
X287533Y219802D1*
X285815Y220357D1*
X283666Y224028D1*
X284394Y226776D1*
X114394Y566776D1*
X110441Y570524D1*
X111061Y573443D1*
X127727Y590110D1*
X134394Y593443D1*
X137727Y596776D1*
X151061Y603443D1*
X161061Y606776D1*
X181061Y610110D1*
X117727D1*
X91061Y583443D1*
X84394Y573443D1*
X71061Y546776D1*
X94394D1*
X96884Y548917D1*
X98569Y548638D1*
X100466Y545881D1*
X101061Y543443D1*
X151061Y443443D1*
X157727Y433443D1*
X271061Y206776D1*
X274394Y203443D1*
Y196776D1*
X267727Y190110D1*
X261061Y186776D1*
X254394Y180110D1*
X227727Y166776D1*
X211061Y163443D1*
X198839Y160110D1*
X186616D1*
X174394Y163443D1*
X157727Y166776D1*
X131061Y180110D1*
X101061Y210110D1*
Y213443D1*
X91061Y233443D1*
X87727Y250110D1*
X84394Y253443D1*
Y520110D1*
X87727Y523443D1*
X91061Y536776D1*
X94394Y546776D1*
X71061D1*
G37*
G36*
X574394Y633443D2*
X571061Y630110D1*
X454394Y396776D1*
Y390110D1*
X467727Y383443D1*
X471061D1*
X474394Y386776D1*
X562741Y563421D1*
X564546Y566500D1*
X566912Y568863D1*
X568615Y568707D1*
X571061Y566776D1*
Y163443D1*
X451061Y160110D1*
Y140110D1*
X707727D1*
Y160110D1*
X591061Y163443D1*
Y633443D1*
X574394D1*
G37*
G36*
X954394D2*
X934394Y630110D1*
X914394Y623443D1*
X907727Y620110D1*
X887727Y606776D1*
X864394Y583443D1*
X851061Y563443D1*
X847727Y556776D1*
X841061Y536776D1*
X837727Y520110D1*
Y506776D1*
X857727D1*
X861061Y523443D1*
X864394Y536776D1*
X867727Y546776D1*
X871061Y553443D1*
X877727Y563443D1*
Y566776D1*
X901061Y590110D1*
X907727Y593443D1*
X911061Y596776D1*
X924394Y603443D1*
X934394Y606776D1*
X954394Y610110D1*
X962172Y613443D1*
X969950D1*
X977727Y610110D1*
X997727Y606776D1*
X1007727Y603443D1*
X1027727Y593443D1*
X1057727Y563443D1*
Y560110D1*
X1067727Y540110D1*
X1071061Y523443D1*
X1074394Y520110D1*
Y506776D1*
X1067727Y500110D1*
X827727Y140110D1*
X1094394D1*
Y160110D1*
X871061Y163443D1*
X871709Y165806D1*
X874394Y170110D1*
X1094394Y500110D1*
Y520110D1*
X1091061Y536776D1*
X1084394Y556776D1*
X1077727Y570110D1*
X1071061Y580110D1*
X1041061Y610110D1*
X1031061Y616776D1*
X1017727Y623443D1*
X997727Y630110D1*
X977727Y633443D1*
X954394D1*
G37*
G36*
X1224394D2*
Y613443D1*
X1451061Y610110D1*
Y603443D1*
X1447727Y600110D1*
X1337727Y380110D1*
Y376776D1*
X1367727Y373443D1*
X1384394Y370110D1*
X1394394Y366776D1*
X1414394Y356776D1*
X1417727Y353443D1*
X1424394Y350110D1*
X1437727Y336776D1*
Y333443D1*
X1447727Y320110D1*
X1451061Y313443D1*
X1454394Y303443D1*
X1457727Y290110D1*
X1461061Y286776D1*
Y250110D1*
X1457727Y246776D1*
X1454394Y233443D1*
X1451061Y223443D1*
X1447727Y216776D1*
X1437727Y203443D1*
Y200110D1*
X1424394Y186776D1*
X1417727Y183443D1*
X1407727Y176776D1*
X1387727Y166776D1*
X1371061Y163443D1*
X1358839Y160110D1*
X1346616D1*
X1334394Y163443D1*
X1317727Y166776D1*
X1291061Y180110D1*
X1261061Y210110D1*
Y213443D1*
X1251061Y233443D1*
X1244394Y266776D1*
X1224394D1*
Y253443D1*
X1227727Y236776D1*
X1234394Y216776D1*
X1241061Y203443D1*
X1247727Y193443D1*
X1277727Y163443D1*
X1287727Y156776D1*
X1307727Y146776D1*
X1317727Y143443D1*
X1334394Y140110D1*
X1371061D1*
X1387727Y143443D1*
X1397727Y146776D1*
X1417727Y156776D1*
X1427727Y163443D1*
X1457727Y193443D1*
X1464394Y203443D1*
X1474394Y223443D1*
X1477727Y236776D1*
X1481061Y253443D1*
Y283443D1*
X1477727Y300110D1*
X1474394Y313443D1*
X1464394Y333443D1*
X1457727Y343443D1*
X1427727Y373443D1*
X1417727Y380110D1*
X1404394Y386776D1*
X1384394Y393443D1*
X1371061Y396776D1*
Y403443D1*
X1374394Y406776D1*
X1487727Y633443D1*
X1224394D1*
G37*
G36*
X1611061D2*
Y376776D1*
X1847727Y373443D1*
Y140110D1*
X1867727D1*
Y633443D1*
X1847727D1*
Y400110D1*
X1775505Y396776D1*
X1703283D1*
X1631061Y400110D1*
Y633443D1*
X1611061D1*
G37*
G36*
X1997727D2*
Y376776D1*
X2141061Y373443D1*
X2157727Y370110D1*
X2167727Y366776D1*
X2187727Y356776D1*
X2191061Y353443D1*
X2197727Y350110D1*
X2211061Y336776D1*
Y333443D1*
X2221061Y320110D1*
X2224394Y313443D1*
X2227727Y303443D1*
X2231061Y290110D1*
X2234394Y286776D1*
Y250110D1*
X2231061Y246776D1*
X2227727Y233443D1*
X2224394Y223443D1*
X2221061Y216776D1*
X2211061Y203443D1*
Y200110D1*
X2197727Y186776D1*
X2191061Y183443D1*
X2181061Y176776D1*
X2161061Y166776D1*
X2144394Y163443D1*
X2132172Y160110D1*
X2119950D1*
X2107727Y163443D1*
X2091061Y166776D1*
X2064394Y180110D1*
X2034394Y210110D1*
Y213443D1*
X2024394Y233443D1*
X2017727Y266776D1*
X1997727D1*
Y253443D1*
X2001061Y236776D1*
X2007727Y216776D1*
X2014394Y203443D1*
X2021061Y193443D1*
X2051061Y163443D1*
X2061061Y156776D1*
X2081061Y146776D1*
X2091061Y143443D1*
X2107727Y140110D1*
X2144394D1*
X2161061Y143443D1*
X2171061Y146776D1*
X2191061Y156776D1*
X2201061Y163443D1*
X2231061Y193443D1*
X2237727Y203443D1*
X2247727Y223443D1*
X2251061Y236776D1*
X2254394Y253443D1*
Y283443D1*
X2251061Y300110D1*
X2247727Y313443D1*
X2237727Y333443D1*
X2231061Y343443D1*
X2201061Y373443D1*
X2191061Y380110D1*
X2171061Y390110D1*
X2157727Y393443D1*
X2141061Y396776D1*
X2017727Y400110D1*
Y610110D1*
X2241061Y613443D1*
Y633443D1*
X1997727D1*
G37*
G36*
X2384394Y343443D2*
Y253443D1*
X2387727Y236776D1*
X2391061Y223443D1*
X2401061Y203443D1*
X2407727Y193443D1*
X2437727Y163443D1*
X2447727Y156776D1*
X2461061Y150110D1*
X2481061Y143443D1*
X2497727Y140110D1*
X2527727D1*
X2544394Y143443D1*
X2564394Y150110D1*
X2577727Y156776D1*
X2587727Y163443D1*
X2617727Y193443D1*
X2624394Y203443D1*
X2634394Y223443D1*
X2637727Y236776D1*
X2641061Y253443D1*
Y283443D1*
X2637727Y303443D1*
X2634394Y313443D1*
X2621061Y340110D1*
X2607727Y356776D1*
X2597727Y366776D1*
X2584394Y376776D1*
X2557727Y390110D1*
X2547727Y393443D1*
X2534394Y396776D1*
X2491061D1*
X2477727Y393443D1*
X2457727Y386776D1*
X2451061Y383443D1*
X2431061Y370110D1*
X2417727Y356776D1*
X2411061Y346776D1*
X2407526Y343156D1*
X2405800Y343697D1*
X2404394Y346776D1*
Y523443D1*
X2407727Y526776D1*
X2411061Y540110D1*
X2414394Y550110D1*
X2427727Y570110D1*
Y573443D1*
X2437727Y583443D1*
X2444394Y586776D1*
X2451061Y593443D1*
X2477727Y606776D1*
X2494394Y610110D1*
X2506616Y613443D1*
X2518839D1*
X2531061Y610110D1*
X2547727Y606776D1*
X2574394Y593443D1*
X2604394Y563443D1*
Y560110D1*
X2611061Y546776D1*
X2614394Y536776D1*
X2617727Y523443D1*
X2621061Y506776D1*
X2641061D1*
Y520110D1*
X2637727Y536776D1*
X2631061Y556776D1*
X2624394Y570110D1*
X2617727Y580110D1*
X2587727Y610110D1*
X2577727Y616776D1*
X2557727Y626776D1*
X2547727Y630110D1*
X2531061Y633443D1*
X2494394D1*
X2477727Y630110D1*
X2467727Y626776D1*
X2447727Y616776D1*
X2437727Y610110D1*
X2407727Y580110D1*
X2401061Y570110D1*
X2394394Y556776D1*
X2387727Y536776D1*
X2384394Y520110D1*
Y343443D1*
X2434394D1*
X2447727Y353443D1*
X2457727Y360110D1*
X2477727Y370110D1*
X2494394Y373443D1*
X2507727Y376776D1*
X2521061D1*
X2547727Y370110D1*
X2574394Y356776D1*
X2604394Y326776D1*
Y323443D1*
X2611061Y310110D1*
X2614394Y300110D1*
X2617727Y286776D1*
X2621061Y283443D1*
Y253443D1*
X2617727Y250110D1*
X2614394Y236776D1*
X2611061Y226776D1*
X2604394Y213443D1*
Y210110D1*
X2574394Y180110D1*
X2547727Y166776D1*
X2531061Y163443D1*
X2518839Y160110D1*
X2506616D1*
X2494394Y163443D1*
X2477727Y166776D1*
X2451061Y180110D1*
X2447727Y183443D1*
X2441061Y186776D1*
X2427727Y200110D1*
Y203443D1*
X2417727Y216776D1*
X2414394Y223443D1*
X2411061Y233443D1*
X2407727Y246776D1*
X2404394Y250110D1*
Y286776D1*
X2407727Y290110D1*
X2411061Y303443D1*
X2414394Y313443D1*
X2417727Y320110D1*
X2427727Y333443D1*
X2434394Y343443D1*
X2384394D1*
G37*
G36*
X2771061Y633443D2*
Y613443D1*
X2997727Y610110D1*
Y603443D1*
X2994394Y600110D1*
X2771061Y153443D1*
X2774394Y150110D1*
X2787727Y140110D1*
X2791061Y143443D1*
X2864394Y290110D1*
X2867727Y300110D1*
X3034394Y633443D1*
X2771061D1*
G37*
G36*
X3211061Y373443D2*
X3181061Y343443D1*
X3174394Y333443D1*
X3167727Y320110D1*
X3161061Y300110D1*
X3157727Y283443D1*
Y253443D1*
X3161061Y236776D1*
X3164394Y223443D1*
X3174394Y203443D1*
X3181061Y193443D1*
X3211061Y163443D1*
X3221061Y156776D1*
X3241061Y146776D1*
X3251061Y143443D1*
X3267727Y140110D1*
X3304394D1*
X3321061Y143443D1*
X3331061Y146776D1*
X3351061Y156776D1*
X3361061Y163443D1*
X3391061Y193443D1*
X3397727Y203443D1*
X3407727Y223443D1*
X3411061Y236776D1*
X3414394Y253443D1*
Y283443D1*
X3411061Y300110D1*
X3404394Y320110D1*
X3397727Y333443D1*
X3391061Y343443D1*
X3364394Y370110D1*
X3354394Y376776D1*
X3341061Y383443D1*
X3337727Y386776D1*
X3357727Y396776D1*
X3371061Y406776D1*
X3381061Y416776D1*
X3391061Y430110D1*
X3397727Y440110D1*
X3407727Y460110D1*
X3411061Y473443D1*
X3414394Y490110D1*
Y520110D1*
X3411061Y536776D1*
X3404394Y556776D1*
X3397727Y570110D1*
X3391061Y580110D1*
X3361061Y610110D1*
X3351061Y616776D1*
X3337727Y623443D1*
X3317727Y630110D1*
X3297727Y633443D1*
X3274394D1*
X3254394Y630110D1*
X3234394Y623443D1*
X3221061Y616776D1*
X3211061Y610110D1*
X3274394D1*
X3282172Y613443D1*
X3289950D1*
X3297727Y610110D1*
X3317727Y606776D1*
X3327727Y603443D1*
X3341061Y596776D1*
X3344394Y593443D1*
X3351061Y590110D1*
X3374394Y566776D1*
Y563443D1*
X3381061Y553443D1*
X3384394Y546776D1*
X3387727Y536776D1*
X3391061Y523443D1*
X3394394Y520110D1*
Y490110D1*
X3391061Y486776D1*
X3387727Y470110D1*
X3377727Y450110D1*
X3371061Y440110D1*
Y436776D1*
X3357727Y423443D1*
X3351061Y420110D1*
X3344394Y413443D1*
X3331061Y406776D1*
X3311061Y400110D1*
X3294394Y396776D1*
X3277727D1*
X3261061Y400110D1*
X3247727Y403443D1*
X3227727Y413443D1*
X3224394Y416776D1*
X3217727Y420110D1*
X3197727Y440110D1*
Y443443D1*
X3191061Y453443D1*
X3184394Y466776D1*
X3181061Y480110D1*
X3177727Y483443D1*
Y523443D1*
X3181061Y526776D1*
X3184394Y540110D1*
X3187727Y550110D1*
X3194394Y560110D1*
Y563443D1*
X3224394Y593443D1*
X3244394Y603443D1*
X3254394Y606776D1*
X3274394Y610110D1*
X3211061D1*
X3181061Y580110D1*
X3174394Y570110D1*
X3167727Y556776D1*
X3161061Y536776D1*
X3157727Y520110D1*
Y486776D1*
X3164394Y460110D1*
X3174394Y440110D1*
X3187727Y420110D1*
X3204394Y403443D1*
X3224394Y390110D1*
X3231061Y386776D1*
X3227727Y383443D1*
X3221061Y380110D1*
X3211061Y373443D1*
X3264394D1*
X3277727Y376776D1*
X3291061D1*
X3304394Y373443D1*
X3321061Y370110D1*
X3347727Y356776D1*
X3377727Y326776D1*
Y323443D1*
X3384394Y310110D1*
X3387727Y300110D1*
X3391061Y286776D1*
X3394394Y283443D1*
Y253443D1*
X3391061Y250110D1*
X3387727Y236776D1*
X3384394Y226776D1*
X3377727Y213443D1*
Y210110D1*
X3347727Y180110D1*
X3321061Y166776D1*
X3304394Y163443D1*
X3292172Y160110D1*
X3279950D1*
X3267727Y163443D1*
X3244394Y170110D1*
X3234394Y173443D1*
X3231061Y176776D1*
X3221061Y183443D1*
X3214394Y186776D1*
X3201061Y200110D1*
Y203443D1*
X3191061Y216776D1*
X3187727Y223443D1*
X3184394Y233443D1*
X3181061Y246776D1*
X3177727Y250110D1*
Y286776D1*
X3181061Y290110D1*
X3184394Y303443D1*
X3187727Y313443D1*
X3191061Y320110D1*
X3201061Y333443D1*
Y336776D1*
X3214394Y350110D1*
X3221061Y353443D1*
X3231061Y360110D1*
X3234394Y363443D1*
X3241061Y366776D1*
X3251061Y370110D1*
X3264394Y373443D1*
X3211061D1*
G37*
G36*
X3597727Y610110D2*
X3567727Y580110D1*
X3561061Y570110D1*
X3551061Y550110D1*
X3547727Y536776D1*
X3544394Y520110D1*
Y490110D1*
X3547727Y470110D1*
X3551061Y460110D1*
X3561061Y440110D1*
X3567727Y430110D1*
X3601061Y396776D1*
X3627727Y383443D1*
X3637727Y380110D1*
X3651061Y376776D1*
X3694394D1*
X3707727Y380110D1*
X3727727Y386776D1*
X3734394Y390110D1*
X3744394Y396776D1*
X3761061Y410110D1*
X3774394Y426776D1*
X3776884Y428917D1*
X3778611Y428722D1*
X3781061Y426776D1*
Y253443D1*
X3777727Y250110D1*
X3774394Y236776D1*
X3771061Y226776D1*
X3764394Y213443D1*
Y210110D1*
X3734394Y180110D1*
X3714394Y170110D1*
X3704394Y166776D1*
X3684394Y163443D1*
X3675505Y160110D1*
X3666616D1*
X3657727Y163443D1*
X3641061Y166776D1*
X3631061Y170110D1*
X3611061Y180110D1*
X3607727Y183443D1*
X3601061Y186776D1*
X3587727Y200110D1*
Y203443D1*
X3577727Y216776D1*
X3574394Y223443D1*
X3571061Y233443D1*
X3567727Y246776D1*
X3564394Y266776D1*
X3544394D1*
Y253443D1*
X3547727Y236776D1*
X3551061Y223443D1*
X3561061Y203443D1*
X3567727Y193443D1*
X3597727Y163443D1*
X3607727Y156776D1*
X3621061Y150110D1*
X3641061Y143443D1*
X3657727Y140110D1*
X3687727D1*
X3704394Y143443D1*
X3724394Y150110D1*
X3737727Y156776D1*
X3747727Y163443D1*
X3777727Y193443D1*
X3784394Y203443D1*
X3794394Y223443D1*
X3797727Y236776D1*
X3801061Y253443D1*
Y520110D1*
X3797727Y536776D1*
X3791061Y556776D1*
X3784394Y570110D1*
X3777727Y580110D1*
X3747727Y610110D1*
X3737727Y616776D1*
X3724394Y623443D1*
X3704394Y630110D1*
X3684394Y633443D1*
X3661061D1*
X3641061Y630110D1*
X3621061Y623443D1*
X3607727Y616776D1*
X3597727Y610110D1*
X3654394D1*
X3666616Y613443D1*
X3678839D1*
X3691061Y610110D1*
X3704394Y606776D1*
X3714394Y603443D1*
X3734394Y593443D1*
X3764394Y563443D1*
Y560110D1*
X3771061Y546776D1*
X3774394Y536776D1*
X3777727Y523443D1*
X3781061Y520110D1*
Y490110D1*
X3777727Y486776D1*
X3774394Y473443D1*
X3771061Y463443D1*
X3764394Y450110D1*
X3754394Y436776D1*
Y433443D1*
X3747727Y426776D1*
X3741061Y423443D1*
X3727727Y413443D1*
X3707727Y403443D1*
X3694394Y400110D1*
X3679950Y396776D1*
X3665505D1*
X3651061Y400110D1*
X3637727Y403443D1*
X3627727Y406776D1*
X3614394Y413443D1*
X3607727Y420110D1*
X3601061Y423443D1*
X3587727Y436776D1*
Y440110D1*
X3577727Y453443D1*
X3574394Y460110D1*
X3567727Y480110D1*
X3564394Y483443D1*
Y523443D1*
X3567727Y526776D1*
X3571061Y540110D1*
X3574394Y550110D1*
X3577727Y556776D1*
X3587727Y570110D1*
Y573443D1*
X3601061Y586776D1*
X3607727Y590110D1*
X3617727Y596776D1*
X3637727Y606776D1*
X3654394Y610110D1*
X3597727D1*
G37*
M02*
